<?xml version="1.0" standalone="no"?>
<!DOCTYPE svg PUBLIC "-//W3C//DTD SVG 1.1//EN" "http://www.w3.org/Graphics/SVG/1.1/DTD/svg11.dtd" >
<!--
2013-9-30: Created.
-->
<svg>
<metadata>
Created by iconfont
</metadata>
<defs>

<font id="iconfont" horiz-adv-x="1024" >
  <font-face
    font-family="iconfont"
    font-weight="500"
    font-stretch="normal"
    units-per-em="1024"
    ascent="896"
    descent="-128"
  />
    <missing-glyph />
    
    <glyph glyph-name="gouwuchekong" unicode="&#58880;" d="M332.8 105.472q19.456 0 36.864-7.168t30.208-19.968 20.48-30.208 7.68-36.864-7.68-36.864-20.48-30.208-30.208-20.48-36.864-7.68q-20.48 0-37.888 7.68t-30.208 20.48-20.48 30.208-7.68 36.864 7.68 36.864 20.48 30.208 30.208 19.968 37.888 7.168zM758.784 103.424q19.456 0 37.376-7.168t30.72-19.968 20.48-30.208 7.68-36.864-7.68-36.864-20.48-30.208-30.72-20.48-37.376-7.68-36.864 7.68-30.208 20.48-20.48 30.208-7.68 36.864 7.68 36.864 20.48 30.208 30.208 19.968 36.864 7.168zM930.816 685.056q28.672 0 44.544-7.68t22.528-18.944 6.144-24.064-3.584-22.016-13.312-37.888-22.016-62.976-23.552-68.096-18.944-53.248q-13.312-40.96-33.28-56.832t-49.664-15.872l-35.84 0-65.536 0-86.016 0-96.256 0-253.952 0 14.336-92.16 517.12 0q49.152 0 49.152-41.984 0-20.48-9.728-35.84t-38.4-14.336l-49.152 0-94.208 0-118.784 0-119.808 0-99.328 0-55.296 0q-20.48 0-34.304 9.216t-23.04 24.064-14.848 32.256-8.704 32.768q-1.024 6.144-5.632 29.696t-11.264 58.88-14.848 78.848-16.384 87.552q-19.456 103.424-44.032 230.4l-76.8 0q-15.36 0-25.6 7.68t-16.896 18.432-9.216 23.04-2.56 22.528q0 20.48 13.824 33.792t37.376 12.288l103.424 0q20.48 0 32.768-6.144t19.456-15.36 10.24-18.944 5.12-16.896q2.048-8.192 4.096-23.04t4.096-30.208q3.072-18.432 6.144-38.912l700.416 0zM892.928 593.92l-641.024 2.048 35.84-185.344 535.552-1.024z"  horiz-adv-x="1028" />

    
    <glyph glyph-name="15tianwuliyoutuihuo" unicode="&#58886;" d="M188.783109 617.436746C256.76441 685.42828 344.458681 729.538917 441.342242 743.453834c118.413923 17.022699 236.411361-13.171997 332.180542-84.883249 95.788623-71.765487 157.907403-176.526459 174.928055-294.939359 35.116799-244.617254-135.326105-472.080825-379.789862-507.219113-102.507652-14.703887-207.618595 6.782473-295.991318 60.432371-15.09786 9.188266-19.911492 28.881794-10.743692 43.979654 9.254781 14.96483 28.860305 19.909445 43.97863 10.721179 75.68168-45.991474 165.783791-64.370053 253.67556-51.768037 209.499431 30.062689 355.569228 225.055732 325.505515 434.753685-14.57188 101.522208-67.826781 191.273325-149.941987 252.756631C653.052015 668.799554 551.92378 694.618593 450.422038 680.00271c-209.717396-30.052456-355.744213-225.089501-325.616032-434.697403 7.898901-54.875818 26.934442-106.161878 56.71163-152.37234 9.540284-14.921851 5.186116-34.788318-9.583263-44.240597-14.855336-9.582239-34.678824-5.294586-44.240597 9.53926-34.745339 54.087872-56.997132 113.907283-66.251913 177.970344-17.000186 118.414947 13.149485 236.479923 84.959997 332.268546C159.442874 585.929148 173.620781 602.295907 188.783109 617.436746L188.783109 617.436746 188.783109 617.436746zM461.471698 421.700783M332.710103 114.33644 332.710103 455.669432l-53.54245 0c-13.385868 0-20.078291 7.42511-20.078291 22.309098 0 11.886725 6.693446 18.579147 20.078291 20.078291l89.237417 0c10.387581 0 15.616676-4.461615 15.616676-13.385868l0-370.335537c-1.499144-14.883989-10.422374-22.309098-26.771737-22.309098C340.866876 92.028365 332.710103 99.452451 332.710103 114.33644zM569.189002 455.669432l-15.615653-111.546515c14.848173 7.42511 32.695656 11.886725 53.541427 13.385868 62.46568-7.459902 97.394191-49.079812 104.85307-124.932384-4.460592-92.235704-49.078789-139.084709-133.855614-140.54906-62.46568 1.464351-100.391455 23.041786-113.777323 64.697511 0 11.886725 5.925966 18.579147 17.847483 20.078291 4.461615 0 12.618389-5.228071 24.539906-15.616676 23.77345-17.847483 48.312332-26.771737 73.619718-26.771737 47.581692 2.963495 73.621764 32.697703 78.083379 89.237417-2.998287 55.006801-26.771737 84.009346-71.389934 87.00661-16.383132 0-34.230616-3.729951-53.541427-11.154038-7.460925-2.997264-12.653181-4.462638-15.617699-4.462638-11.921517 0-17.847483 5.194302-17.847483 15.616676 0 4.461615 1.465374 15.616676 4.462638 33.464159l22.308075 140.54906c-1.499144 8.924253 4.460592 13.385868 17.847483 13.385868l140.54906 0c13.384845-1.499144 20.809955-8.191566 22.309098-20.078291-1.499144-14.883989-8.924253-22.309098-22.309098-22.309098L569.189002 455.670455z"  horiz-adv-x="1024" />

    
    <glyph glyph-name="arrow-right" unicode="&#58950;" d="M782.8 384.9l-430.9-430.9c-22.8-22.8-59.8-22.8-82.6 0s-22.8 59.8 0 82.6l348.2 348.3-348.3 348.3c-22.8 22.8-22.8 59.8 0 82.6 22.8 22.8 59.8 22.8 82.6 0l431-430.9zM782.8 384.9z"  horiz-adv-x="1024" />

    
    <glyph glyph-name="7tiantuihuan1" unicode="&#58889;" d="M454.4 332.8 512 332.8c0 25.6 6.4 57.6 12.8 96s25.6 70.4 38.4 102.4 38.4 57.6 51.2 76.8L614.4 652.8 409.6 652.8l0-57.6 140.8 0C524.8 556.8 499.2 518.4 480 473.6S454.4 377.6 454.4 332.8zM281.6 230.4l352 0 0-25.6 121.6 32c6.4 0 6.4 12.8 0 19.2L633.6 288l0-25.6L281.6 262.4c-12.8 0-19.2-6.4-19.2-19.2C262.4 236.8 268.8 230.4 281.6 230.4zM268.8 147.2c-6.4 0-6.4-12.8 0-19.2l121.6-32 0 25.6 352 0c12.8 0 19.2 6.4 19.2 19.2 0 12.8-6.4 19.2-19.2 19.2L390.4 160l0 25.6L268.8 147.2zM512 896C448 896 384 883.2 326.4 864 320 857.6 320 851.2 320 844.8c0-6.4 12.8-12.8 19.2-6.4C390.4 857.6 454.4 870.4 512 870.4c268.8 0 486.4-217.6 486.4-486.4s-217.6-486.4-486.4-486.4S25.6 115.2 25.6 384c0 6.4-6.4 12.8-12.8 12.8S0 390.4 0 384c0-281.6 230.4-512 512-512s512 230.4 512 512S793.6 896 512 896z"  horiz-adv-x="1024" />

    
    <glyph glyph-name="dizhi2" unicode="&#58931;" d="M512 896c-169.974913 0-307.775586-150.898269-307.775586-307.200205 0-255.799845 307.726443-716.799795 307.726443-716.799795s307.824729 472.551593 307.824729 716.751676l0 0.049143C819.775586 793.550448 682.024056 896 512 896zM512 486.350243c-70.825099 0-128.224982 57.297503-128.224982 127.999744s57.399884 127.999744 128.224982 127.999744 128.249554-57.298526 128.249554-127.999744S582.825099 486.350243 512 486.350243z"  horiz-adv-x="1024" />

    
    <glyph glyph-name="arrow-right-copy-copy" unicode="&#58883;" d="M347.687 751.812l-52.761-52.238 313.928-316.082-316.568-313.42 52.314-52.673 369.322 365.663z"  horiz-adv-x="1024" />

    
    <glyph glyph-name="iconset0206" unicode="&#58985;" d="M938.666667 640l-162.133333 0c17.066667 36.266667 17.066667 76.8-2.133333 113.066667-36.266667 61.866667-121.6 76.8-194.133333 36.266667C552.533333 772.266667 533.333333 750.933333 518.4 725.333333c0 0-2.133333 0-2.133333 0 0 0 0 0-2.133333 0-2.133333 0-2.133333 0-4.266667 0 0 0-2.133333 0-2.133333 0 0 0-2.133333 0-2.133333 0 0 0-2.133333 0-2.133333 0C490.666667 750.933333 469.333333 772.266667 443.733333 787.2c-70.4 40.533333-157.866667 25.6-194.133333-36.266667-19.2-34.133333-19.2-74.666667-2.133333-113.066667L85.333333 637.866667c-23.466667 0-42.666667-19.2-42.666667-42.666667l0-85.333333c0-23.466667 19.2-42.666667 42.666667-42.666667l0-213.333333 0-42.666667 0-213.333333c0-23.466667 19.2-42.666667 42.666667-42.666667l768 0c23.466667 0 42.666667 19.2 42.666667 42.666667L938.666667 213.333333l0 42.666667L938.666667 469.333333c23.466667 0 42.666667 19.2 42.666667 42.666667l0 85.333333C981.333333 620.8 962.133333 640 938.666667 640zM285.866667 729.6c23.466667 40.533333 83.2 49.066667 134.4 21.333333 32-19.2 53.333333-49.066667 57.6-78.933333-4.266667-10.666667-8.533333-21.333333-12.8-32L405.333333 640l-108.8 0C275.2 667.733333 270.933333 704 285.866667 729.6zM85.333333 512l0 85.333333 360.533333 0c-17.066667-32-36.266667-61.866667-55.466667-85.333333L85.333333 512zM490.666667 0 128 0 128 213.333333l362.666667 0L490.666667 0zM490.666667 256 128 256 128 469.333333l228.266667 0c-27.733333-32-49.066667-49.066667-49.066667-49.066667-8.533333-8.533333-10.666667-21.333333-2.133333-29.866667 2.133333-4.266667 6.4-6.4 10.666667-6.4 6.4-2.133333 12.8 0 19.2 4.266667 2.133333 2.133333 38.4 32 78.933333 81.066667L490.666667 469.333333 490.666667 256zM490.666667 512l-46.933333 0c17.066667 23.466667 32 51.2 46.933333 78.933333L490.666667 512zM601.6 750.933333c51.2 29.866667 110.933333 19.2 134.4-21.333333C753.066667 704 746.666667 667.733333 727.466667 640L618.666667 640l-61.866667 0c-4.266667 10.666667-8.533333 21.333333-12.8 32C548.266667 701.866667 569.6 731.733333 601.6 750.933333zM533.333333 590.933333c14.933333-29.866667 29.866667-55.466667 46.933333-78.933333L533.333333 512 533.333333 590.933333zM896 0 533.333333 0 533.333333 213.333333l362.666667 0L896 0zM896 256 533.333333 256 533.333333 469.333333l78.933333 0c40.533333-51.2 74.666667-78.933333 78.933333-81.066667 6.4-4.266667 12.8-6.4 19.2-4.266667 4.266667 2.133333 8.533333 4.266667 10.666667 6.4 8.533333 8.533333 6.4 23.466667-2.133333 29.866667 0 0-21.333333 17.066667-49.066667 49.066667L896 469.333333 896 256zM938.666667 512 633.6 512c-19.2 23.466667-38.4 53.333333-55.466667 85.333333L938.666667 597.333333 938.666667 512z"  horiz-adv-x="1024" />

    
    <glyph glyph-name="zuojiantou" unicode="&#58958;" d="M274.510074 434.795896c130.168642 125.846196 260.332167 251.684206 390.490575 377.400442 53.595662 51.864228 133.49848-32.354895 79.653131-84.346013-115.838262-112.008027-231.6755-223.893256-347.450317-335.904353C513.596358 276.111804 629.989251 160.147676 746.444567 44.309414c52.978609-52.733015-26.921139-136.953162-79.712483-84.282568C535.946388 90.126926 405.233348 220.289428 274.510074 350.453976 252.90194 372.06211 252.342192 413.436426 274.510074 434.795896L274.510074 434.795896zM274.510074 434.795896"  horiz-adv-x="1024" />

    
    <glyph glyph-name="iconfonticonfonti2copycopy" unicode="&#58926;" d="M276.755-46.936c28.497-29.315 74.739-29.315 103.307 0l367.236 378.011c28.483 29.367 28.483 76.982 0 106.291l-367.236 377.997c-28.562 29.367-74.806 29.367-103.307 0-28.546-29.325-28.546-76.929 0-106.304l315.6-324.841-315.599-324.803c-28.545-29.367-28.544-76.973 0-106.356l0 0z"  horiz-adv-x="1024" />

    
    <glyph glyph-name="jiantouarrow484" unicode="&#59048;" d="M906.77248 384c0-4.77184-2.21184-9.2672-5.9904-12.17536l-376.5248-289.4848c-2.7648-2.11968-6.06208-3.18464-9.3696-3.18464-3.25632 0-6.5024 1.03424-9.24672 3.09248-5.50912 4.15744-7.5776 11.48928-5.03808 17.90976l75.71456 191.67232L132.58752 291.82976c-8.48896 0-15.36 6.88128-15.36 15.36l0 153.6c0 8.48896 6.87104 15.36 15.36 15.36l443.72992 0-75.71456 191.68256c-2.53952 6.42048-0.47104 13.75232 5.04832 17.90976 5.50912 4.15744 13.12768 4.13696 18.60608-0.09216l376.5248-289.4848C904.56064 393.2672 906.77248 388.77184 906.77248 384z"  horiz-adv-x="1024" />

    
    <glyph glyph-name="jiantouarrow486" unicode="&#59050;" d="M171.15136 554.99776l684.02176 0-342.016-341.99552L171.15136 554.99776z"  horiz-adv-x="1024" />

    
    <glyph glyph-name="jiantouarrow492" unicode="&#59056;" d="M855.16288 213.00224 171.14112 213.00224l342.016 341.99552L855.16288 213.00224z"  horiz-adv-x="1024" />

    
    <glyph glyph-name="geren1" unicode="&#58967;" d="M586.945923 382.418992c55.067176 27.962865 92.91211 85.125773 92.91211 150.998039 0 93.338828-75.937506 169.276335-169.277358 169.276335s-169.275311-75.937506-169.275311-169.276335c0-65.872267 37.844933-123.034151 92.911086-150.998039-95.652524-32.016181-164.778904-122.45496-164.778904-228.743728 0-11.31572 9.17394-20.491707 20.491707-20.491707s20.491707 9.174963 20.491707 20.491707c0 110.36869 89.791026 200.160739 200.160739 200.160739S710.741413 264.043954 710.741413 153.675264c0-11.31572 9.17394-20.491707 20.491707-20.491707s20.491707 9.174963 20.491707 20.491707C751.723803 259.964032 682.598446 350.401788 586.945923 382.418992zM382.287753 533.417031c0 70.742181 57.552787 128.293945 128.292921 128.293945 70.742181 0 128.293945-57.552787 128.293945-128.293945 0-70.741157-57.552787-128.292921-128.293945-128.292921C439.84054 405.123087 382.287753 462.675874 382.287753 533.417031zM827.871087 699.872111C743.498468 784.242683 631.320573 830.709995 512 830.709995S280.500509 784.243707 196.128913 699.872111C111.756293 615.498468 65.291029 503.321596 65.291029 384.001023s46.465265-231.499491 130.837884-315.872111 196.550515-130.837884 315.871087-130.837884 231.498468 46.465265 315.871087 130.837884S958.708971 264.680451 958.708971 384.001023 912.243707 615.499491 827.871087 699.872111zM512-21.726581c-223.718271 0-405.726581 182.007287-405.726581 405.727605 0 223.718271 182.00831 405.726581 405.726581 405.726581s405.726581-182.007287 405.726581-405.726581C917.726581 160.280706 735.718271-21.726581 512-21.726581z"  horiz-adv-x="1024" />

    
    <glyph glyph-name="fangdajing3" unicode="&#58903;" d="M938.64603 9.726781l-173.071777 173.074847c53.665247 63.987337 86.075401 146.400325 86.075401 236.446154 0 203.406666-164.895561 368.298134-368.301204 368.298134-203.409736 0-368.302227-164.892491-368.302227-368.298134 0-203.409736 164.892491-368.302227 368.302227-368.302227 89.246627 0 171.055864 31.767518 234.798631 84.579327l173.148525-173.148525c1.576915-1.576915 8.15575 2.443655 14.6957 8.979512l23.675212 23.675212C936.205445 1.571031 940.222945 8.149866 938.64603 9.726781zM483.347426 117.906619c-166.425404 0-301.338093 134.912689-301.338093 301.338093s134.912689 301.338093 301.338093 301.338093S784.685519 585.670116 784.685519 419.244712 649.773853 117.906619 483.347426 117.906619z"  horiz-adv-x="1024" />

    
    <glyph glyph-name="huidaodingbu3" unicode="&#59210;" d="M509.44 628.48C504.32 633.6 498.56 636.16 492.8 637.44 488.96 639.36 484.48 640 480 640S471.04 639.36 467.2 637.44C461.44 636.16 455.68 633.6 450.56 628.48l-313.6-313.6c-14.08-14.08-14.08-35.84 0-49.92 14.08-14.08 35.84-14.08 49.92 0L448 526.08l0-558.08C448-49.92 462.08-64 480-64S512-49.92 512-32L512 526.08l261.12-261.12c14.08-14.08 35.84-14.08 49.92 0 14.08 14.08 14.08 35.84 0 49.92L509.44 628.48zM864 768l-768 0C78.08 768 64 753.92 64 736 64 718.08 78.08 704 96 704l768 0C881.92 704 896 718.08 896 736 896 753.92 881.92 768 864 768z"  horiz-adv-x="1024" />

    
    <glyph glyph-name="geren2" unicode="&#58904;" d="M947.477355 0.510547 76.524542 0.510547c-8.144418 0-15.756092 4.036936-20.325772 10.778947-4.566031 6.737146-5.49286 15.303624-2.475193 22.869078 53.321854 133.621485 163.484351 241.537455 294.128307 291.195781-54.120971 47.052988-86.240093 115.797665-86.240093 189.028096 0 138.065885 112.323881 250.389766 250.389766 250.389766s250.387333-112.323881 250.387333-250.389766c0-73.230432-32.11669-141.975108-86.237661-189.028096 130.64274-49.658326 240.80402-157.574296 294.12709-291.195781 3.017667-7.565454 2.085973-16.131932-2.480058-22.869078C963.232231 4.547482 955.618124 0.510547 947.477355 0.510547L947.477355 0.510547zM114.353028 49.609369l795.290976 0c-59.168661 119.317669-169.024647 211.144278-294.082087 243.633159-9.70981 2.522629-16.903073 10.699887-18.177767 20.648094-1.268612 9.95064 3.639202 19.67018 12.40029 24.554885 63.847809 35.572229 103.505627 102.987478 103.505627 175.936942 0 110.993237-90.295274 201.294592-201.28851 201.294592-110.998102 0-201.294592-90.301355-201.294592-201.294592 0-72.949464 39.657818-140.364713 103.50441-175.936942 8.762304-4.885921 13.674984-14.605462 12.401506-24.554885-1.273478-9.948207-8.46674-18.124249-18.178983-20.648094C283.377675 260.753647 173.520473 168.927038 114.353028 49.609369L114.353028 49.609369zM114.353028 49.609369"  horiz-adv-x="1024" />

    
    <glyph glyph-name="huidaodingbu" unicode="&#59373;" d="M509.44 628.48C504.32 633.6 498.56 636.16 492.8 637.44 488.96 639.36 484.48 640 480 640S471.04 639.36 467.2 637.44C461.44 636.16 455.68 633.6 450.56 628.48l-313.6-313.6c-14.08-14.08-14.08-35.84 0-49.92 14.08-14.08 35.84-14.08 49.92 0L448 526.08l0-558.08C448-49.92 462.08-64 480-64S512-49.92 512-32L512 526.08l261.12-261.12c14.08-14.08 35.84-14.08 49.92 0 14.08 14.08 14.08 35.84 0 49.92L509.44 628.48zM864 768l-768 0C78.08 768 64 753.92 64 736 64 718.08 78.08 704 96 704l768 0C881.92 704 896 718.08 896 736 896 753.92 881.92 768 864 768z"  horiz-adv-x="1024" />

    
    <glyph glyph-name="build" unicode="&#58978;" d="M968 86c18-12 18-42-4-60l-98-98c-18-18-42-18-60 0l-388 388c-98-38-212-18-294 64-86 86-108 214-56 316l188-184 128 128-184 184c102 46 230 30 316-56 82-82 102-196 64-294z"  horiz-adv-x="1024" />

    
    <glyph glyph-name="huidaodingbu4" unicode="&#59044;" d="M511.99872 896C229.23008 896 0 666.76864 0 384c0-282.76992 229.23008-512 512-512 282.7712 0 512 229.23008 512 512C1024 666.76864 794.76992 896 511.99872 896zM743.37024 291.00032c-8.61696 0-16.47744 3.49312-22.1376 9.13792L542.752 478.53824l0-414.38592c0-17.24544-13.98528-31.2448-31.24608-31.2448-17.27744 0-31.27552 14.00064-31.27552 31.2448l0 0.02944L480.2304 477.568 303.33952 300.6592c-5.7088-5.96736-13.7536-9.67552-22.67904-9.67552-17.35168 0-31.41376 14.06208-31.41376 31.4304 0 8.6144 3.49184 16.43008 9.09312 22.0928l230.90816 230.9376c5.72288 6.03136 13.76768 9.81504 22.74048 9.81504 8.8128 0 16.79872-3.67744 22.47552-9.53856L765.61408 344.5376l0-0.02944c5.64736-5.6448 9.13792-13.47712 9.13792-22.12224C774.752 305.04704 760.70656 291.00032 743.37024 291.00032zM772.9216 614.1376 251.07712 614.1376c-17.2608 0-31.27552 14.03008-31.27552 31.2768 0 17.2928 14.01472 31.27808 31.27552 31.27808l521.84576 0c17.25952 0 31.27808-13.98528 31.27808-31.27808C804.19968 628.16896 790.1824 614.1376 772.9216 614.1376z"  horiz-adv-x="1024" />

    
    <glyph glyph-name="geren9" unicode="&#58932;" d="M505.860672-123.529899c-135.171123 0-262.011236 53.115729-357.119889 149.622296-4.14735 4.184668-6.363237 9.975021-6.034434 15.885398 5.050044 93.180216 66.417102 120.558573 177.739955 170.22591 16.582339 7.38898 34.397182 15.354876 53.609941 24.218424 12.312949 5.70664 23.31573 36.823866 32.468745 64.817468-48.560906 40.063479-75.077922 109.824079-75.077922 198.614882 0 135.643146 93.959861 183.771364 174.414612 183.771364 80.45576 0 174.415621-48.127209 174.415621-183.771364 0-88.808958-26.516008-158.551403-75.077922-198.614882 9.112671-27.993602 20.114444-59.109819 32.511106-64.817468 19.16838-8.863548 37.065929-16.829445 53.606915-24.218424 111.325879-49.710706 172.651585-77.087047 177.659268-170.22591 0.328803-5.910377-1.847749-11.70073-5.992073-15.885398C767.872917-70.414171 641.075164-123.529899 505.860672-123.529899zM185.436557 48.832218c86.366136-84.110914 199.784854-130.329858 320.423106-130.329858 120.683639 0 234.058987 46.218944 320.383771 130.329858-6.444933 57.260052-44.289499 76.882301-152.042928 124.991356-16.705387 7.428315-34.770363 15.474899-54.104153 24.423169-30.374899 14.039666-43.592558 55.047191-57.588855 98.43803l-1.930454 5.909368c-2.913836 8.947261 0.492195 18.759899 8.332017 23.971318 44.703023 29.82017 69.331947 91.374828 69.331947 173.289018 0 131.515968-101.347832 141.737087-132.382353 141.737087-31.072847 0-132.380336-10.221119-132.380336-141.737087 0-81.892001 24.628923-143.446659 69.37229-173.289018 7.79847-5.211419 11.165166-15.024057 8.291674-23.971318l-1.887084-5.788337c-14.039666-43.46951-27.256318-84.519396-57.550528-98.559062-19.374134-8.903892-37.436084-16.950476-54.103145-24.423169C229.769425 125.71452 191.880481 106.093279 185.436557 48.832218zM847.998865 19.811865c-2.502328 0-5.005665 0.448826-7.428315 1.353537-7.79847 2.958214-13.093603 10.221119-13.547471 18.511784-3.488736 64.445295-39.486561 83.535005-152.822574 134.146388-16.705387 7.428315-34.770363 15.474899-54.104153 24.423169-30.374899 14.039666-43.592558 55.047191-57.588855 98.43803l-1.930454 5.909368c-2.913836 8.947261 0.492195 18.759899 8.332017 23.971318 44.703023 29.82017 69.331947 91.374828 69.331947 173.289018 0 131.515968-101.347832 141.737087-132.382353 141.737087-31.072847 0-132.380336-10.221119-132.380336-141.737087 0-81.892001 24.628923-143.446659 69.37229-173.289018 7.79847-5.211419 11.165166-15.024057 8.291674-23.971318l-1.887084-5.788337c-14.039666-43.46951-27.256318-84.519396-57.550528-98.559062-19.374134-8.903892-37.436084-16.950476-54.103145-24.423169-113.374339-50.571039-149.416543-69.657723-152.945622-134.146388-0.410499-8.291674-5.745975-15.554578-13.50511-18.511784-7.675421-2.95418-16.540986-1.066087-22.411019 4.926995C55.599902 120.542436 4.330914 245.534801 4.330914 377.99885c0 276.545115 224.98666 501.531775 501.529758 501.531775 276.545115 0 501.530766-224.98666 501.530766-501.531775 0-132.464049-51.31034-257.456414-144.407851-351.906453C858.959286 21.987408 853.542113 19.811865 847.998865 19.811865zM605.19837 301.238588c9.112671-27.993602 20.114444-59.109819 32.511106-64.817468 19.16838-8.863548 37.065929-16.829445 53.606915-24.218424 91.29414-40.75941 148.925356-66.499807 169.529978-125.812354 67.648599 82.056403 104.510791 184.143536 104.510791 291.607498 0 253.370588-206.145065 459.498507-459.497498 459.498507-253.39076 0-459.49649-206.12691-459.49649-459.498507 0-107.463962 36.82084-209.51176 104.509783-291.607498 20.564278 59.313555 78.280217 85.092279 169.571331 125.812354 16.582339 7.38898 34.397182 15.354876 53.609941 24.218424 12.312949 5.70664 23.31573 36.823866 32.468745 64.817468-48.560906 40.063479-75.077922 109.824079-75.077922 198.614882 0 135.643146 93.959861 183.771364 174.414612 183.771364 80.45576 0 174.415621-48.127209 174.415621-183.771364C680.275284 411.044512 653.759276 341.302067 605.19837 301.238588z"  horiz-adv-x="1024" />

    
    <glyph glyph-name="7tiantuihuo" unicode="&#58988;" d="M0.48 896v-1024h1023.041l0 1024h-1023.041zM977.301-81.781h-932.379v935.114h932.379l-0-935.114zM451.396 192.193l48.629-0.139 144.475 326.525v57.367h-256.569v-44.636h213.853z"  horiz-adv-x="1024" />

    
    <glyph glyph-name="15tianbaohuan" unicode="&#58989;" d="M0.48 896v-1024h1023.041l0 1024h-1023.041zM977.301-81.781h-932.379v935.114h932.379l-0-935.114zM303.792 67.166l-63.727 63.999h552.3l-63.727-63.999h63.728l84.968 85.333-84.968 85.333h-63.728l63.729-64h-552.304l63.729 64h-63.728l-84.967-85.334 84.967-85.332zM490.322 361.136h-63.888v345.149h-38.448c-1.905-25.634 1.44-63.003-57.673-63.003v-38.446h57.673l0-243.699h-63.889v-38.443h166.225l0 38.443zM637.272 573.236c-8.528 0-39.56 0-57.66 0v95.171h172.979v38.427h-211.42v-172.023c0 0 44.48 0 76.879 0 125.918 0 132.823-172.913 0-172.913-18.408 0-76.879 0-76.879 0v-38.427c0 0 81.907 0 96.102 0 157.386 0.001 148.744 249.765-0.001 249.765z"  horiz-adv-x="1024" />

    
    <glyph glyph-name="liwu2" unicode="&#59013;" d="M924.649248 73.490014 924.649248 379.818771c21.098527 12.180414 35.259038 34.95614 35.259038 61.081147L959.908286 518.980227c0 38.885636-31.564903 70.502727-70.50989 70.502727l-92.732008 0c2.031263 1.215688 4.050246 2.440585 6.051833 3.677762 42.710754 26.396183 71.222111 52.741201 79.844489 81.858356 8.915044 30.106692-5.238304 57.455573-38.946011 76.966952-38.893822 22.51376-86.874603 25.088398-141.296073 12.032034-38.808888-9.31004-79.630618-26.253944-121.081683-48.621371-22.441105-12.109806-43.670615-25.061792-63.065338-38.024012-4.710278-3.14769-9.074679-6.139837-13.083993-8.951883-6.860245 6.130627-13.867846 12.18553-21.047362 18.104333-60.102866 49.556673-120.3009 82.089623-178.51065 89.178065-47.313585 5.762237-91.119277-5.932106-128.96421-37.111223l-2.709715-2.62478c-1.222851-1.39272-2.399653-2.796696-3.529383-4.211928-38.202067-47.88766-20.659529-97.891518 27.161616-142.272307l-60.288085 0c-39.051411 0-70.50989-31.546483-70.50989-70.502727l0-78.08031c0-26.058492 14.186094-48.836265 35.259038-61.038168l0-306.371736c0-51.970652 42.047652-93.820805 94.055143-93.820805l634.591059 0C882.690624-20.329768 924.649248 21.60839 924.649248 73.490014zM603.601254 674.133913c38.149878 20.586874 75.376735 36.037774 109.707634 44.274366 43.72792 10.489912 79.850629 8.55177 106.71651-6.999414 16.350386-9.464559 19.618826-15.780405 17.451464-23.098068-4.270257-14.421454-26.194592-34.679847-59.513442-55.271838-14.854313-9.18008-30.887474-17.828041-46.931892-25.63996-9.611915-4.679579-17.024745-8.011464-21.10876-9.732665-4.241604-1.787716-7.677866-4.674463-10.128685-8.185426L578.456574 589.480908c-0.849344 3.066849-2.323928 6.012947-4.477988 8.629541-1.252527 1.521656-3.5345 4.210905-6.777357 7.900947-5.322216 6.055926-11.461029 12.780071-18.346857 20.006659-2.964518 3.110851-5.992481 6.218632-9.052167 9.324366 1.469468 0.998747 2.978844 2.015913 4.5312 3.053546C562.564629 650.581498 582.550823 662.775214 603.601254 674.133913zM273.063119 591.664643c-2.225691 1.238201-6.499018 3.817955-12.116969 7.561209-9.450233 6.296403-18.900465 13.420661-27.631314 21.152762-35.000142 30.993898-45.433772 58.057277-26.204825 82.161255 0.300852 0.3776 0.636496 0.75827 0.953721 1.136893 27.187199 21.762653 57.552787 29.628808 91.77317 25.461905 47.482431-5.782703 100.449783-34.407648 154.260339-78.775134 21.828145-17.997909 42.267663-37.33635 60.690244-56.668651 1.362021-1.428535 2.683109-2.830465 3.979638-4.212952L276.309046 589.481931C275.30416 590.284203 274.223548 591.017914 273.063119 591.664643zM113.702622 518.980227c0 13.100366 10.464329 23.593348 23.499204 23.593348l752.196571 0c12.941753 0 23.499204-10.574846 23.499204-23.593348l0-78.08031c0-6.303566-2.427282-11.999288-6.393617-16.217357-1.722224 0.401136-3.514033 0.620124-5.359055 0.620124L125.455293 425.302685c-1.825578 0-3.599991-0.214894-5.306866-0.607844-3.988848 4.229325-6.445806 9.931187-6.445806 16.205077L113.702622 518.980227zM196.004069 26.578588c-26.069749 0-47.043433 20.874423-47.043433 46.911426L148.960637 370.397191l728.676901 0 0-296.907177c0-25.993001-20.928658-46.911426-47.043433-46.911426L196.004069 26.578588z"  horiz-adv-x="1024" />

    
    <glyph glyph-name="huidaodingbu5" unicode="&#58905;" d="M511.99872 896C229.23008 896 0 666.76864 0 384c0-282.76992 229.23008-512 512-512 282.7712 0 512 229.23008 512 512C1024 666.76864 794.76992 896 511.99872 896zM743.37024 291.00032c-8.61696 0-16.47744 3.49312-22.1376 9.13792L542.752 478.53824l0-414.38592c0-17.24544-13.98528-31.2448-31.24608-31.2448-17.27744 0-31.27552 14.00064-31.27552 31.2448l0 0.02944L480.2304 477.568 303.33952 300.6592c-5.7088-5.96736-13.7536-9.67552-22.67904-9.67552-17.35168 0-31.41376 14.06208-31.41376 31.4304 0 8.6144 3.49184 16.43008 9.09312 22.0928l230.90816 230.9376c5.72288 6.03136 13.76768 9.81504 22.74048 9.81504 8.8128 0 16.79872-3.67744 22.47552-9.53856L765.61408 344.5376l0-0.02944c5.64736-5.6448 9.13792-13.47712 9.13792-22.12224C774.752 305.04704 760.70656 291.00032 743.37024 291.00032zM772.9216 614.1376 251.07712 614.1376c-17.2608 0-31.27552 14.03008-31.27552 31.2768 0 17.2928 14.01472 31.27808 31.27552 31.27808l521.84576 0c17.25952 0 31.27808-13.98528 31.27808-31.27808C804.19968 628.16896 790.1824 614.1376 772.9216 614.1376z"  horiz-adv-x="1024" />

    
    <glyph glyph-name="huidaodingbu1" unicode="&#58908;" d="M511.99872 896C229.23008 896 0 666.76864 0 384c0-282.76992 229.23008-512 512-512 282.7712 0 512 229.23008 512 512C1024 666.76864 794.76992 896 511.99872 896zM743.37024 291.00032c-8.61696 0-16.47744 3.49312-22.1376 9.13792L542.752 478.53824l0-414.38592c0-17.24544-13.98528-31.2448-31.24608-31.2448-17.27744 0-31.27552 14.00064-31.27552 31.2448l0 0.02944L480.2304 477.568 303.33952 300.6592c-5.7088-5.96736-13.7536-9.67552-22.67904-9.67552-17.35168 0-31.41376 14.06208-31.41376 31.4304 0 8.6144 3.49184 16.43008 9.09312 22.0928l230.90816 230.9376c5.72288 6.03136 13.76768 9.81504 22.74048 9.81504 8.8128 0 16.79872-3.67744 22.47552-9.53856L765.61408 344.5376l0-0.02944c5.64736-5.6448 9.13792-13.47712 9.13792-22.12224C774.752 305.04704 760.70656 291.00032 743.37024 291.00032zM772.9216 614.1376 251.07712 614.1376c-17.2608 0-31.27552 14.03008-31.27552 31.2768 0 17.2928 14.01472 31.27808 31.27552 31.27808l521.84576 0c17.25952 0 31.27808-13.98528 31.27808-31.27808C804.19968 628.16896 790.1824 614.1376 772.9216 614.1376z"  horiz-adv-x="1024" />

    
    <glyph glyph-name="kefu" unicode="&#58938;" d="M804.278 529.689c-32.087 134.201-149.477 237.566-292.388 237.566-146.854 0-267.617-100.472-292.387-237.565-37.155-7.103-54.823-26.341-54.823-54.824v-127.919c0-31.945 23.806-54.823 54.823-54.823 17.489 0 44.543 5.337 54.823 18.274 24.842-66.958 110.145-149.298 129.080-151.602 9.44-1.142 14.972-1.66 8.637 6.14-9.369 11.51-68.296 68.992-79.861 149.601-5.104 35.479 20.987 70.313 51.325 76.060 48.755 9.245 97.224 19.792 145.979 28.875 30.981 5.747 52.147 23.075 65.103 51.932 3.034 6.746 6.674 20.344 8.674 40.011 1.785 9.78 11.101 3.159 11.492 2.641 0 0 69.563-23.736 79.879-148.836 6.282-75.879-62.248-177.281-69.956-189.113 0.483 0.732 0.090-10.243 6.568-6.638 57.625 32.355 101.83 86.409 122.264 151.423 8.262-12.528 21.218-21.557 36.246-24.699-24.11-111.842-121.96-181.833-243.204-192.47-7.263 18.382-25.145 31.427-46.15 31.427-27.447 0-49.683-22.165-49.683-49.442 0-27.305 22.235-49.434 49.683-49.434 22.111 0 40.635 14.491 47.078 34.408 140.322 11.599 252.823 96.662 276.308 228.775 20.755 8.834 35.318 23.27 35.318 47.488v127.92c-0.001 47.007-54.611 53.966-54.825 54.823zM731.182 493.141c-36.603 101.079-107.719 164.468-219.292 164.468-111.109 0-200.623-64.049-237.565-164.468-1.838 2.284-16.168 16.276-18.274 18.274 20.914 122.37 131.275 201.016 255.839 201.016 123.959 0 215.972-79.504 237.566-201.016-7.69-10.529-18.273-18.274-18.273-18.274z"  horiz-adv-x="1024" />

    
    <glyph glyph-name="editor2" unicode="&#58927;" d="M941.214017 122.16869c-1.203408 6.122441-4.175089 11.967566-8.92016 16.709567L659.77309 410.430976c11.047614 28.091802 18.101263 58.189284 20.465101 89.596598 0.49528 2.258437 0.76441 4.601808 0.76441 7.008624l-0.204661 2.164293c0.215918 4.736884 0.331551 9.500375 0.331551 14.291494 0 170.725336-138.406257 309.12443-309.133639 309.12443-44.024679 0-85.889159-9.219989-123.793444-25.809829-6.462179-0.883113-12.706393-3.711532-17.797341-8.479115-3.634784-1.87572-7.231705-3.814886-10.780531-5.828752l3.723811-3.723811c-5.885034-12.125155-3.801583-27.143197 6.268774-37.214577l145.882532-146.790204-83.827197-84.479043L145.461441 667.402605c-10.56666 10.580986-26.610054 12.347213-39.025828 5.316076l-3.412726 3.195785c-2.139733-3.767813-4.195555-7.588839-6.178723-11.452843-2.946099-3.748371-4.958942-7.989975-6.025227-12.415774-17.929348-39.147602-27.940352-82.678024-27.940352-128.553864 0-170.728406 138.389884-309.125453 309.117266-309.125453 39.10053 0 76.498278 7.272637 110.931508 20.520359l249.061472-248.176312c6.505158-8.368598 14.052041-15.885805 22.444175-22.363334l1.667989-1.661849c3.611248-3.616364 7.865131-6.200212 12.392238-7.758708 18.34174-10.55438 39.61116-16.59291 62.291718-16.59291 69.076238 0 125.074623 55.999408 125.074623 125.074623C955.859575 84.648145 950.556802 104.648664 941.214017 122.16869zM830.850443 2.560568c-11.418051 0-22.098297 3.15383-31.226189 8.629541l-20.844747 20.771069c-0.813528 1.345648-1.568728 2.729158-2.278903 4.140297l-65.075111 64.712861c-0.13917-0.441045-0.287549-0.876973-0.420579-1.320065L543.574624 266.331044c0.097214 0.064468 0.195451 0.12689 0.292666 0.192382l-47.081295 47.079248c-36.735669-21.945825-79.68383-34.56933-125.585253-34.56933-135.449925 0-245.2691 109.810988-245.2691 245.260913 0 21.555945 2.785439 42.460044 8.010441 62.376653l127.742383-128.536468c0.877997-0.877997 1.796926-1.689479 2.745531-2.445702 1.152243-1.708921 2.479471-3.335978 3.991917-4.847401 12.712533-12.712533 33.305547-12.712533 46.01808 0L444.138938 581.539029c12.712533 12.71151 12.712533 33.313733 0 46.026266-0.804319 0.804319-1.641383 1.556449-2.50403 2.25946-1.098008 1.585101-2.344395 3.098571-3.755534 4.50971l-126.9616 127.743406c19.287275 4.879124 39.480176 7.483438 60.283991 7.483438 135.450948 0 245.252727-109.812011 245.252727-245.2691 0-2.515287-0.051165-5.01727-0.12689-7.514137-0.455371-2.170432-0.698918-4.418636-0.698918-6.724145l0.245593-2.584871c-1.771343-26.097378-7.619538-51.076282-16.919345-74.30124l4.071735-2.801812c-1.802042-1.191128-3.511987-2.579755-5.098111-4.166903-12.713556-12.712533-12.713556-33.314757 0-46.027289l155.519006-154.962328 0.272199 0.291642 28.646434-29.106922 13.047154-13.000082c-0.064468-0.019443-0.127913-0.040932-0.192382-0.060375l66.682725-67.75515c1.577938-0.941442 3.115967-1.942235 4.597715-3.01773l13.446243-13.398148c7.341199-10.045797 11.685133-22.420639 11.685133-35.815717C891.630738 29.782559 864.410793 2.560568 830.850443 2.560568z"  horiz-adv-x="1024" />

    
    <glyph glyph-name="dizhi3" unicode="&#58894;" d="M511.425901-59.659138C481.601958-59.659138 168.221882 292.843578 168.221882 482.383741 168.221882 671.919039 321.866277 825.587761 511.425901 825.587761s343.20402-153.645612 343.20402-343.20402C854.629921 292.824117 539.724591-59.659138 511.425901-59.659138L511.425901-59.659138zM511.425901 781.30188C346.33602 781.30188 212.507762 647.455378 212.507762 482.383741c0-165.114207 290.551136-497.761864 298.918139-497.761864 3.853273 0 298.923004 332.647657 298.923004 497.761864C810.348905 647.455378 676.520648 781.30188 511.425901 781.30188L511.425901 781.30188zM511.425901 360.600611c-67.243749 0-121.783131 54.534516-121.783131 121.783131 0 67.243749 54.539382 121.783131 121.783131 121.783131 67.248614 0 121.783131-54.539382 121.783131-121.783131C633.209032 415.135127 578.674516 360.600611 511.425901 360.600611L511.425901 360.600611zM511.425901 559.880992c-42.799549 0-77.49725-34.717163-77.49725-77.49725 0-42.822659 34.697702-77.49725 77.49725-77.49725 42.803198 0 77.49725 34.674592 77.49725 77.49725C588.923151 525.163829 554.229099 559.880992 511.425901 559.880992L511.425901 559.880992zM511.425901 559.880992"  horiz-adv-x="1024" />

    
    <glyph glyph-name="gouwuche2" unicode="&#58914;" d="M1042.537043 214.997714C1040.1653 203.295036 1030.1166 194.744278 1018.133057 194.213757L427.038552 168.249413C426.664066 168.218206 426.258373 168.218206 425.85268 168.218206 411.996709 168.218206 400.450066 179.109499 399.85713 193.059092 399.20178 207.383171 410.373937 219.491543 424.76043 220.146893L995.507878 245.206229 1089.378966 705.105903 326.926035 705.105903C312.508335 705.105903 300.868071 716.746168 300.868071 731.101454 300.868071 745.425533 312.508335 757.065797 326.926035 757.065797L1121.272666 757.065797C1129.105659 757.065797 1136.501752 753.570597 1141.463688 747.516411 1146.394417 741.493432 1148.391674 733.535611 1146.80011 725.921068L1042.537043 214.997714ZM1051.743151 105.460641C1066.129644 105.460641 1077.801115 93.820376 1077.801115 79.496297 1077.801115 65.141011 1066.129644 53.500747 1051.743151 53.500747L330.327614 53.500747C317.470271 53.500747 306.547771 62.86289 304.581721 75.53299L186.213025 843.66562 26.057965 843.66562C11.640265 843.66562 0 855.305885 0 869.661171 0 883.98525 11.640265 895.625514 26.057965 895.625514L208.588547 895.625514C221.477097 895.625514 232.399598 886.263371 234.365648 873.593271L352.703136 105.460641 1051.743151 105.460641ZM424.229909 22.699296C465.922653 22.699296 499.81361-11.129248 499.81361-52.665956 499.81361-94.202664 465.922653-128 424.229909-128 382.505958-128 348.583793-94.202664 348.583793-52.665956 348.583793-11.129248 382.505958 22.699296 424.229909 22.699296ZM424.229909-76.040106C437.149666-76.040106 447.666474-65.554506 447.666474-52.665956 447.666474-39.746198 437.149666-29.260598 424.229909-29.260598 411.247737-29.260598 400.73093-39.746198 400.73093-52.665956 400.73093-65.554506 411.247737-76.040106 424.229909-76.040106ZM961.83537 22.699296C1003.528114 22.699296 1037.450279-11.129248 1037.450279-52.665956 1037.450279-94.202664 1003.528114-128 961.83537-128 920.142626-128 886.220461-94.202664 886.220461-52.665956 886.220461-11.129248 920.142626 22.699296 961.83537 22.699296ZM961.83537-76.040106C974.786335-76.040106 985.334349-65.554506 985.334349-52.665956 985.334349-39.746198 974.786335-29.260598 961.83537-29.260598 948.915613-29.260598 938.367598-39.746198 938.367598-52.665956 938.367598-65.554506 948.915613-76.040106 961.83537-76.040106Z"  horiz-adv-x="1148" />

    
    <glyph glyph-name="7tiantuihuan" unicode="&#59025;" d="M911.872 445.952c-13.312 0-25.6 9.216-28.672 23.04C843.776 643.072 691.2 764.928 512 764.928S180.224 643.072 140.8 468.48c-3.584-15.872-19.456-25.6-34.816-22.016-15.872 3.584-25.6 19.456-22.016 34.816 45.568 201.216 221.696 342.016 428.544 342.016s382.976-140.8 428.544-342.016c3.584-15.872-6.144-31.232-22.016-34.816C915.968 445.952 913.92 445.952 911.872 445.952zM512-55.296c-206.848 0-382.976 140.8-428.544 342.016-3.584 15.872 6.144 31.232 22.016 34.816 15.872 3.584 31.744-6.144 34.816-22.016 39.424-174.592 192.512-296.448 371.2-296.448s331.776 121.856 371.2 296.448c3.584 15.872 19.456 25.6 34.816 22.016 15.872-3.584 25.6-19.456 22.016-34.816C894.976 84.992 718.336-55.296 512-55.296zM450.048 89.6c-4.096 0-8.704 1.024-12.8 3.072-14.848 7.168-20.992 24.576-13.824 38.912l192 402.432L339.968 534.016c-16.384 0-29.184 13.312-29.184 29.184 0 16.384 13.312 29.184 29.184 29.184l322.56 0c10.24 0 19.456-5.12 24.576-13.824 5.12-8.704 6.144-18.944 1.536-28.16l-211.968-444.416C471.552 95.744 461.312 89.6 450.048 89.6zM911.872 445.952c-5.12 0-10.24 1.024-14.848 4.096l-88.576 51.2c-13.824 8.192-18.944 26.112-10.752 39.936 8.192 13.824 26.112 18.944 39.936 10.752l63.488-36.864 36.864 63.488c8.192 13.824 26.112 18.944 39.936 10.752 13.824-8.192 18.944-26.112 10.752-39.936l-51.2-88.576C931.84 451.072 922.112 445.952 911.872 445.952zM60.928 174.592c-5.12 0-10.24 1.024-14.848 4.096-13.824 8.192-18.944 26.112-10.752 39.936l51.2 88.576c4.096 6.656 10.24 11.776 17.92 13.824 7.68 2.048 15.36 1.024 22.016-3.072l88.576-51.2c13.824-8.192 18.944-26.112 10.752-39.936-8.192-13.824-26.112-18.944-39.936-10.752L122.88 252.928 86.016 189.44C80.896 180.224 70.656 174.592 60.928 174.592z"  horiz-adv-x="1024" />

    
    <glyph glyph-name="15tianbaotui01" unicode="&#59016;" d="M981.333 896h-981.333v-1024h1024v42.667l-0 938.667v42.667h-42.667zM981.333-85.333h-938.667v938.667h938.667l-0-938.667zM512 0c200.533 0 362.667 162.133 362.667 362.667s-162.133 362.667-362.667 362.667h-64l64 64h-64l-85.333-85.333 85.333-85.333h64l-64 64h64c177.067 0 320-142.933 320-320s-142.933-320-320-320c-177.067 0-320 142.933-320 320h-42.667c0-200.533 162.133-362.667 362.667-362.667zM445.867 213.333h-40.533v320h-85.333v-42.667h42.667v-277.333h-44.8v-42.667h128zM608 213.333h-117.333v-42.667h117.333c64 0 117.333 53.333 117.333 117.333s-53.333 117.333-117.333 117.333l-74.667 0v85.333h170.667v42.667h-213.333v-170.667h117.333c40.533 0 74.667-34.133 74.667-74.667 0-40.533-34.133-74.667-74.667-74.667z"  horiz-adv-x="1024" />

    
    <glyph glyph-name="shouji2" unicode="&#58906;" d="M761.503 893.094h-519.381c-32.405 0-58.932-26.061-58.932-58.528v-902.302c0-32.156 26.217-58.217 58.932-58.217h519.381c32.345 0 58.591 26.061 58.591 58.217v902.613c0 32.156-26.247 58.217-58.591 58.217M452.879 834.877h98.147c6.78 0 12.315-5.536 12.315-12.253 0-6.749-5.535-12.253-12.315-12.253h-98.147c-6.779 0-12.345 5.504-12.345 12.253-0.001 6.717 5.566 12.253 12.345 12.253M501.642-84.593c-29.637 0-53.988 23.946-53.988 53.678 0 29.357 24.040 53.614 53.988 53.614 29.917 0 53.988-23.884 53.988-53.614 0-29.731-24.069-53.678-53.988-53.678M766.357 92.857c0-16.234-13.186-29.108-29.234-29.108h-470.619c-16.358 0-29.326 13.186-29.326 29.108l-0 639.642c0 16.233 13.279 29.139 29.326 29.139h470.246c16.421 0 29.358-13.185 29.358-29.139v-639.642l0.249 0zM766.357 92.857z"  horiz-adv-x="1024" />

    
    <glyph glyph-name="jiantou1" unicode="&#58890;" d="M398.499 659.5l274.256-274.256-274.256-274.256z"  horiz-adv-x="1024" />

    
    <glyph glyph-name="fangdajing" unicode="&#58941;" d="M450.540923 60.578151C238.095329 60.578151 65.258028 233.414089 65.258028 445.85287 65.258028 658.288926 238.095329 831.126228 450.540923 831.126228 662.986518 831.126228 835.830632 658.288926 835.830632 445.85287 835.830632 233.415452 662.986518 60.578151 450.540923 60.578151L450.540923 60.578151ZM450.540923 736.294153C290.384053 736.294153 160.09419 606.001565 160.09419 445.85287 160.09419 285.702813 290.384053 155.408862 450.540923 155.408862 610.696431 155.408862 740.99447 285.702813 740.99447 445.85287 740.99447 606.001565 610.696431 736.294153 450.540923 736.294153L450.540923 736.294153ZM900.538167-62.477626C885.598531-62.477626 870.668434-56.777836 859.268854-45.387795L657.978933 155.887138C635.189312 178.676758 635.189312 215.627965 657.978933 238.423037 680.77673 261.205844 717.722486 261.205844 740.518919 238.423037L941.807478 37.148104C964.598462 14.358483 964.598462-22.592724 941.807478-45.386432 930.407899-56.777836 915.477801-62.477626 900.538167-62.477626"  horiz-adv-x="1024" />

    
    <glyph glyph-name="bangdingshouji" unicode="&#58887;" d="M717.76 831.872H306.112a88.96 88.96 0 0 1-88.768-88.96V25.024c0-49.088 39.808-88.896 88.768-88.896h411.648a88.96 88.96 0 0 1 88.896 88.896V742.912c0 49.088-39.936 88.96-88.896 88.96M272.192 639.104h479.552v-479.744H272.192V639.104z m479.552-614.08a33.984 33.984 0 0 0-33.984-33.984H306.112a33.92 33.92 0 0 0-33.856 33.984v79.488h479.552v-79.488h-0.064zM272.192 693.952v48.96c0 18.752 15.232 34.048 33.856 34.048h411.648c18.752 0 33.984-15.296 33.984-34.048v-48.96H272.192zM512-2.112l0 0m33.024 746.176H478.976a12.416 12.416 0 0 1 0-24.896h66.048c6.848 0 12.352 5.632 12.352 12.48s-5.44 12.416-12.352 12.416"  horiz-adv-x="1024" />

    
    <glyph glyph-name="dizhi4" unicode="&#58907;" d="M501.76 865.28C337.92 865.28 204.8 732.16 204.8 565.76c0-163.84 161.28-371.2 299.52-540.16 135.68 171.52 299.52 373.76 299.52 540.16-2.56 166.4-135.68 299.52-302.08 299.52z m0-496.64c-110.08 0-197.12 89.6-197.12 197.12 0 110.08 89.6 197.12 197.12 197.12 110.08 0 197.12-89.6 197.12-197.12 2.56-110.08-87.04-197.12-197.12-197.12z m0 0M389.12 565.76c0-30.72 12.8-58.88 33.28-79.36 20.48-20.48 51.2-33.28 79.36-33.28 30.72 0 58.88 12.8 79.36 33.28 20.48 20.48 33.28 51.2 33.28 79.36 0 30.72-12.8 58.88-33.28 79.36-20.48 20.48-51.2 33.28-79.36 33.28-30.72 0-58.88-12.8-79.36-33.28-20.48-20.48-33.28-48.64-33.28-79.36z m0 0M504.32-104.96c-192 0-386.56 61.44-386.56 176.64 0 64 64 117.76 176.64 151.04 20.48 5.12 40.96-5.12 46.08-25.6 5.12-20.48-5.12-40.96-25.6-46.08-84.48-23.04-122.88-56.32-122.88-79.36 0-40.96 122.88-102.4 314.88-102.4 192 0 314.88 61.44 314.88 102.4 0 23.04-46.08 58.88-130.56 81.92-20.48 5.12-30.72 25.6-25.6 46.08 5.12 20.48 25.6 30.72 46.08 25.6 117.76-30.72 186.88-87.04 186.88-153.6-7.68-115.2-202.24-176.64-394.24-176.64z m0 0"  horiz-adv-x="1024" />

    
    <glyph glyph-name="shouji" unicode="&#59209;" d="M510.740671 382.371776m-508.819876 0a508.819876 508.819876 0 1 1 1017.639752 0 508.819876 508.819876 0 1 1-1017.639752 0ZM510.740671 382.371776m-355.442485 0a355.442484 355.442484 0 1 1 710.884969 0 355.442484 355.442484 0 1 1-710.884969 0ZM659.869416 1.494658H361.611925a44.521739 44.521739 0 0 0-44.521739 44.52174V718.720795a44.521739 44.521739 0 0 0 44.521739 44.521739h298.257491a44.521739 44.521739 0 0 0 44.521739-44.521739V46.016398a44.521739 44.521739 0 0 0-44.521739-44.52174zM658.540124 11.467528H362.941217c-24.366112 0-44.127404 26.293267-44.127403 50.881988v-12.720497c0-24.58872 19.761292-44.521739 44.127403-44.521739h295.611628c24.366112 0 44.121043 19.933019 44.121043 44.521739v12.720497c0-24.58872-19.754932-50.881988-44.121043-50.881988zM336.749714 676.959404h347.981913v-589.168895H336.749714zM510.740671 45.997317m-25.180224 0a25.180224 25.180224 0 1 1 50.360447 0 25.180224 25.180224 0 1 1-50.360447 0ZM510.740671 45.997317m-20.002982 0a20.002981 20.002981 0 1 1 40.005963 0 20.002981 20.002981 0 1 1-40.005963 0ZM539.412671 712.96477h-57.35036a5.215404 5.215404 0 0 0-5.215404 5.215404v0.063602a5.215404 5.215404 0 0 0 5.215404 5.215404h57.35672a5.215404 5.215404 0 0 0 5.215404-5.215404v-0.063602a5.215404 5.215404 0 0 0-5.215404-5.215404zM456.500472 718.211975m-6.684621 0a6.684621 6.684621 0 1 1 13.369242 0 6.684621 6.684621 0 1 1-13.369242 0ZM510.740671 742.38728m-4.573019 0a4.573019 4.573019 0 1 1 9.146037 0 4.573019 4.573019 0 1 1-9.146037 0Z"  horiz-adv-x="1024" />

    
    <glyph glyph-name="banshou" unicode="&#58969;" d="M152.59648 328.82176c55.36768-55.36256 128.96768-85.8624 207.27296-85.8624h0.01536a295.7824 295.7824 0 0 1 111.52384 21.95968l293.21216-293.21216c21.34016-21.34016 49.71008-33.09056 79.89248-33.09056s58.55744 11.76064 79.89248 33.09056c44.05248 44.0576 44.05248 115.7376 0 159.77984L631.1936 424.69376c44.66176 108.71808 19.92192 235.00288-63.89248 318.81728-55.3728 55.36768-128.99328 85.86752-207.30368 85.86752a292.23936 292.23936 0 0 1-111.93344-22.1184l-31.0784-12.81024L357.90848 653.5168a81.06496 81.06496 0 0 0 23.8848-57.65632c0-21.77536-8.48384-42.25024-23.8848-57.64608a81.00864 81.00864 0 0 0-57.66144-23.8848 81.00864 81.00864 0 0 0-57.6512 23.8848L125.44 655.36l-23.77728 23.77216-12.81536-31.08352c-45.312-109.90592-20.28544-235.20768 63.74912-319.22688z m-33.26976 269.20448l91.55072-91.54048c23.86944-23.86944 55.60832-37.02272 89.3696-37.02272s65.50016 13.15328 89.36448 37.02784c23.86944 23.86944 37.02784 55.6032 37.02784 89.36448 0 33.77152-13.1584 65.50528-37.02784 89.37984L298.09664 776.76032a248.55552 248.55552 0 0 0 61.89568 7.76704c66.32448 0 128.68608-25.8304 175.5904-72.73472 74.20416-74.20416 93.75232-187.70944 48.64-282.4448l-6.8096-14.29504 315.25888-315.28448c26.5728-26.56256 26.5728-69.79072 0-96.34816-12.86144-12.87168-29.97248-19.95776-48.16896-19.95776s-35.3024 7.0912-48.17408 19.95776l-315.27936 315.26912-14.29504-6.79936c-33.0752-15.75936-70.02624-24.07936-106.87488-24.07936-66.3296 0-128.68096 25.82016-175.57504 72.71936C121.3952 423.43936 97.53088 513.64864 119.32672 598.02624z"  horiz-adv-x="1024" />

    
    <glyph glyph-name="gerensvg" unicode="&#58900;" d="M672.525 298.145c93.976 55.907 157.108 158.452 157.108 275.504 0 176.651-143.727 320.371-320.378 320.371-176.659 0-320.378-143.72-320.378-320.371 0-117.060 63.132-219.604 157.108-275.504-171.262-65.849-293.169-231.98-293.169-426.145h86.7c0 203.882 165.864 369.754 369.74 369.754s369.74-165.872 369.74-369.754h86.7c0 194.165-121.908 360.297-293.169 426.145zM275.576 573.649c0 128.844 104.828 233.671 233.678 233.671 128.851 0 233.678-104.828 233.678-233.671 0-128.851-104.828-233.686-233.678-233.686-128.851 0-233.678 104.828-233.678 233.686z"  horiz-adv-x="1024" />

    
    <glyph glyph-name="7tianbaotui" unicode="&#59084;" d="M981.33504 896H0v-1024h1024V896h-42.66496z m0-981.33504H42.66496V853.33504h938.66496l0.00512-938.67008zM512 0c200.53504 0 362.66496 162.13504 362.66496 362.66496S712.53504 725.33504 512 725.33504H448l64 64H448L362.66496 704 448 618.66496H512l-64 64H512c177.06496 0 320-142.93504 320-320s-142.93504-320-320-320-320 142.93504-320 320h-42.66496C149.33504 162.13504 311.46496 0 512 0zM446.27456 161.47456l48.62976-0.13824 144.47616 326.52288V545.22368H382.81216v-44.63616h213.85216l-150.38976-339.11296z"  horiz-adv-x="1024" />

    
    <glyph glyph-name="gouwuche" unicode="&#58966;" d="M848.66 101.479h-564.219c-23.054 0-42.821 16.461-46.996 39.133l-111.207 603.945c-1.098 2.857-3.151 4.539-4.769 5.472-1.814 1.050-4.721 2.1-8.252 1.154-25.491-6.831-51.696 8.298-58.526 33.789s8.299 51.696 33.791 58.526c27.415 7.347 56.101 3.547 80.775-10.7 24.675-14.246 42.309-37.19 49.655-64.605 0.329-1.226 0.608-2.466 0.838-3.714l104.483-567.427h524.429c26.391 0 47.787-21.395 47.787-47.787s-21.397-47.787-47.79-47.787zM419.242 243.932c-24.941-0.001-45.947 19.354-47.634 44.604-1.759 26.333 18.163 49.105 44.496 50.864l408.89 27.307c0.953 0.068 2.063 0.107 3.183 0.107 0 0 0 0 0.001 0 5.921 0 10.923 5.003 10.923 10.923 0 1.146 0.041 2.29 0.124 3.433l12.113 168.238c-0.535 5.461-5.296 9.899-10.873 9.899-0.723 0-1.45 0.016-2.172 0.049l-600.038 27.307c-26.365 1.2-46.764 23.546-45.565 49.909 1.2 26.364 23.529 46.747 49.909 45.565l599.111-27.264c58.149-0.67 105.249-48.182 105.249-106.49 0-1.146-0.041-2.29-0.124-3.433l-12.181-169.179c-1.040-57.213-47.421-103.55-104.652-104.515l-407.531-27.217c-1.084-0.073-2.161-0.108-3.232-0.108zM850.265-1.127c0-41.473-33.62-75.093-75.093-75.093s-75.093 33.62-75.093 75.093 33.62 75.093 75.093 75.093 75.093-33.62 75.093-75.093M481.964-1.127c0-41.473-33.62-75.093-75.093-75.093s-75.093 33.62-75.093 75.093 33.62 75.093 75.093 75.093 75.093-33.62 75.093-75.093z"  horiz-adv-x="1024" />

    
    <glyph glyph-name="zuojiantou1" unicode="&#58970;" d="M277.382 342.978c-23.136 22.633-23.113 59.378 0.024 82.035l383.961 421.98c23.16 22.657 60.65 22.68 83.786 0.048 23.112-22.657 23.088-59.378-0.048-82.058l-347.407-381.779 346.713-381.035c23.16-22.681 23.401-59.186 0.576-81.555-22.825-22.368-60.122-22.104-83.258 0.553l-383.052 420.97c-0.382 0.361-0.91 0.457-1.294 0.84z"  horiz-adv-x="1024" />

    
    <glyph glyph-name="dizhi" unicode="&#59188;" d="M514.529 755.572c-156.365 0-283.125-125.12-283.125-279.465s283.125-459.123 283.125-459.123 283.125 304.778 283.125 459.123-126.76 279.465-283.125 279.465zM514.529 337.039c-74.783 0-135.408 60.624-135.408 135.408s60.625 135.408 135.408 135.408 135.408-60.624 135.408-135.408c0-74.783-60.625-135.408-135.408-135.408z"  horiz-adv-x="1024" />

    
    <glyph glyph-name="duanxin" unicode="&#59108;" d="M553.710933 145.066667h402.090667A45.374578 45.374578 0 0 1 1001.244444 190.418489V759.625956A45.511111 45.511111 0 0 1 955.8016 804.977778H136.465067A45.374578 45.374578 0 0 1 91.022222 759.625956v-569.207467A45.511111 45.511111 0 0 1 136.465067 145.066667H295.822222v-136.533334l257.888711 136.533334z m22.300445-91.022223l-291.612445-160.881777C240.4352-131.094756 204.8-110.045867 204.8-59.824356V54.044444H136.669867A136.692622 136.692622 0 0 0 0 190.714311V759.330133A136.6016 136.6016 0 0 0 136.669867 896h818.926933A136.692622 136.692622 0 0 0 1092.266667 759.330133v-568.615822A136.6016 136.6016 0 0 0 955.5968 54.044444H576.011378zM295.822222 395.377778a68.266667 68.266667 0 1 0 0 136.533333 68.266667 68.266667 0 0 0 0-136.533333z m250.311111 0a68.266667 68.266667 0 1 0 0 136.533333 68.266667 68.266667 0 0 0 0-136.533333z m250.311111 0a68.266667 68.266667 0 1 0 0 136.533333 68.266667 68.266667 0 0 0 0-136.533333z"  horiz-adv-x="1092" />

    
    <glyph glyph-name="address_icon" unicode="&#58968;" d="M512 884c-199.11 0-361.11-162-361.11-361.11 0-191.45 325.36-610.46 339.22-628.2 5.128-6.531 13.023-10.688 21.89-10.688 8.867 0 16.762 4.157 21.845 10.628 13.905 17.8 339.265 436.81 339.265 628.26 0 199.11-162 361.11-361.11 361.11zM512-42.54c-102.13 135.46-305.56 432.67-305.56 565.43 0 168.48 137.080 305.55 305.56 305.55s305.56-137.070 305.56-305.55c0-132.76-203.43-429.97-305.56-565.43zM512 717.33c-107.2 0-194.44-87.23-194.44-194.44s87.24-194.45 194.44-194.45 194.44 87.23 194.44 194.44-87.24 194.45-194.44 194.45zM512 384c-76.58 0-138.89 62.31-138.89 138.89s62.31 138.89 138.89 138.89 138.89-62.31 138.89-138.89-62.31-138.89-138.89-138.89z"  horiz-adv-x="1024" />

    
    <glyph glyph-name="phone_icon" unicode="&#58975;" d="M762 884h-500c-46.001-0.051-83.279-37.329-83.33-83.325l-0-833.345c0.051-46.001 37.329-83.279 83.325-83.33l500.005-0c46.001 0.051 83.279 37.329 83.33 83.325l0 833.345c-0.051 46.001-37.329 83.279-83.325 83.33zM234.22 800.67c0.017 15.334 12.446 27.759 27.779 27.77l500.001 0c15.338-0.011 27.769-12.442 27.78-27.779l0-638.881h-555.56zM789.78-32.67c-0.017-15.334-12.446-27.759-27.779-27.77l-500.001-0c-15.338 0.011-27.769 12.442-27.78 27.779l-0 138.881h555.56zM456.44 22.89c0-0 0-0 0-0 0-30.685 24.875-55.56 55.56-55.56 30.685 0 55.56 24.875 55.56 55.56 0 0 0 0 0 0 0 30.685-24.875 55.56-55.56 55.56-30.685 0-55.56-24.875-55.56-55.56z"  horiz-adv-x="1024" />

    
    <glyph glyph-name="geren3" unicode="&#58891;" d="M922.048-121.856a25.408 25.408 0 1 0 0 50.88c14.72 0 27.968 6.848 36.416 18.88a46.336 46.336 0 0 1 5.632 42.752 471.104 471.104 0 0 1-294.528 286.656 25.472 25.472 0 0 0 15.744 48.448 522.368 522.368 0 0 0 326.656-318.016c10.688-29.952 6.336-63.232-12.032-89.152-17.92-25.728-46.4-40.448-77.888-40.448zM95.744-121.856a94.08 94.08 0 0 0-78.016 40.512 97.6 97.6 0 0 0-11.904 89.152 522.24 522.24 0 0 0 326.656 318.016 25.536 25.536 0 0 0 15.808-48.448 470.72 470.72 0 0 1-294.592-286.656 46.272 46.272 0 0 1 5.568-42.752 43.904 43.904 0 0 1 36.416-18.88 25.408 25.408 0 0 0 0.064-50.944zM508.928 234.368c-182.4 0-330.816 148.416-330.816 330.816S326.528 896 508.928 896c182.4 0 330.752-148.352 330.752-330.752s-148.352-330.88-330.752-330.88z m0 610.752a280.192 280.192 0 0 1-279.936-279.872 280.32 280.32 0 0 1 279.936-280 280.32 280.32 0 0 1 279.872 280A280.32 280.32 0 0 1 508.928 845.12z"  horiz-adv-x="1024" />

    
    <glyph glyph-name="duanxin1" unicode="&#58956;" d="M157.988571-128c-32.182857 0-52.662857 0-55.588571 2.925714l-102.4 8.777143L93.622857-69.48571400000003s90.697143 46.811429 93.622857 131.657143C81.92 147.01714300000003 20.48 272.822857 17.554286 410.331429 17.554286 676.571429 266.24 896 573.44 896s555.885714-219.428571 555.885714-485.668571c0-269.165714-248.685714-485.668571-555.885714-485.668572-32.182857 0-64.365714 2.925714-96.548571 5.851429-117.028571-49.737143-248.685714-58.514286-318.902858-58.514286zM573.44 837.485714C298.422857 837.485714 76.068571 644.388571 76.068571 410.331429c2.925714-122.88 58.514286-236.982857 157.988572-310.125715l11.702857-8.777143v-11.702857c5.851429-64.365714-23.405714-114.102857-55.588571-146.285714 73.142857 2.925714 178.468571 14.628571 272.091428 58.514286l8.777143 2.925714 8.777143-2.925714c32.182857-5.851429 64.365714-8.777143 93.622857-8.777143 275.017143 0 497.371429 190.171429 497.371429 427.154286C1070.811429 644.388571 848.457143 837.485714 573.44 837.485714zM368.64 340.114286h234.057143c17.554286 0 29.257143-11.702857 29.257143-29.257143s-11.702857-29.257143-29.257143-29.257143h-234.057143c-17.554286 0-29.257143 11.702857-29.257143 29.257143s11.702857 29.257143 29.257143 29.257143zM368.64 515.657143h409.6c17.554286 0 29.257143-11.702857 29.257143-29.257143s-11.702857-29.257143-29.257143-29.257143H368.64c-17.554286 0-29.257143 11.702857-29.257143 29.257143s11.702857 29.257143 29.257143 29.257143z"  horiz-adv-x="1129" />

    
    <glyph glyph-name="personal" unicode="&#58962;" d="M987.648 47.615999999999985a502.784 502.784 0 0 1-228.864 279.552 307.2 307.2 0 1 1-449.024 0 503.808 503.808 0 0 1-228.864-279.552 93.696 93.696 0 0 1 13.312-80.896 124.416 124.416 0 0 1 87.04-43.008 38.4 38.4 0 0 1 0 76.8 51.2 51.2 0 0 0-29.696 12.288 23.04 23.04 0 0 0 0 17.408 429.568 429.568 0 0 0 219.136 244.736 304.128 304.128 0 0 1 319.488 0 429.056 429.056 0 0 0 219.136-244.736 23.552 23.552 0 0 0 0-17.408 51.2 51.2 0 0 0-30.208-12.288 38.4 38.4 0 0 1 0-76.8 124.416 124.416 0 0 1 87.04 43.008 93.696 93.696 0 0 1 21.504 80.896zM304.128 537.6a230.4 230.4 0 1 0 230.4-230.4A230.4 230.4 0 0 0 304.128 537.6z"  horiz-adv-x="1024" />

    
    <glyph glyph-name="duanxin2" unicode="&#59250;" d="M204.8 672l278.4-278.4c12.8-12.8 35.2-12.8 48 0l288 278.4H204.8z m688-19.2l-320-307.2c-38.4-35.2-99.2-35.2-137.6 0L131.2 656c-3.2-6.4-3.2-9.6-3.2-16v-512c0-19.2 12.8-32 32-32h704c19.2 0 32 12.8 32 32V640c0 3.2 0 9.6-3.2 12.8zM160 736h704c54.4 0 96-41.6 96-96v-512c0-54.4-41.6-96-96-96H160c-54.4 0-96 41.6-96 96V640c0 54.4 41.6 96 96 96z"  horiz-adv-x="1024" />

    
    <glyph glyph-name="liwu3" unicode="&#59083;" d="M916.5 561.5v-101.7c0-24.9-27.3-45.2-60.8-45.2h-2.4v12.9h2.4c24 0 43.4 14.5 43.4 32.4V561.5c0 17.8-19.4 32.4-43.4 32.4H517.1c-0.4 3.1-0.7 5.7-1 7.8l2-0.2-0.1 2c7.7 0.9 15 2 22 3.3h315.8c33.4-0.1 60.7-20.4 60.7-45.3zM899.1 561.5v-101.7c0-17.8-19.4-32.4-43.4-32.4H604v-12.8h237v-358.3c0-16.9-13.7-30.6-30.6-30.6h-604c-16.9 0-30.6 13.7-30.6 30.6V414.6h332.6v12.8l29.3 6.4c11-33.7 25.2-63.6 42.8-79.6l-8.1-71.5 121.9-162 96.7 82.5-120.4 146-81 13.3c-45.2 39.5-67 185.8-72.6 231.4h338.6c24.1 0 43.5-14.6 43.5-32.4zM853.3 414.6v-358.3c0-23.6-19.2-42.8-42.8-42.8h-604c-23.6 0-42.8 19.2-42.8 42.8V414.6h12.2v-358.3c0-16.9 13.7-30.6 30.6-30.6h604c16.9 0 30.6 13.7 30.6 30.6V414.6h12.2zM841.1 426.4h12.2v-11.9h-12.2zM853.3 427.4v-1h-12.2v-11.8H604v12.8zM670.8 349.2l120.4-146-96.7-82.5-121.9 162 8.1 71.5c-17.6 16-31.8 45.8-42.8 79.6-19.7 59.8-29.7 131.7-33.2 160.1h12.5c5.6-45.6 27.4-191.9 72.6-231.4l81-13.3z m103.3-144.5L664.3 337.8l-71.9 11.9-7.1-63.6 111.1-147.7 77.7 66.3zM664.3 337.8l109.8-133.1-77.7-66.3-111.1 147.7 7.1 63.5zM674.2 771c17.8-25.9 20.7-58.2 7.3-86.5-0.7-2.1-23.5-57-141.6-77.7h-22.1l-0.4 10.3c127.3 16.6 151.2 72.4 151.5 72.9 11.4 24.3 9.2 51.6-6 73.5-16 23.5-44.3 36.9-76.3 36.9-2.9 0-5.7-0.1-8.7-0.4-17.4-1.2-31.3-8.1-41.4-20.3-18.2-22-21.1-56.4-21.1-75.9 0 13-1.2 32-7 50.5 3.7 12.1 9.3 24.1 17.6 34.1 12.7 15.2 29.8 23.7 51 25.3 40.5 2.9 76.9-13.1 97.2-42.7zM662.9 763.3c15.2-21.9 17.4-49.1 6-73.5-0.2-0.5-24.2-56.2-151.5-72.9l-1.7 42.7 0.2 29.1c0 0.1-0.6 6-0.6 14.8v0.1c0 19.6 2.9 53.9 21.1 75.9 10.1 12.2 24.1 19.1 41.4 20.3 2.9 0.2 5.7 0.4 8.7 0.4 32.2 0 60.4-13.4 76.4-36.9zM517.8 606.7H540c-7-1.3-14.3-2.4-22-3.3l-0.2 3.3zM537.9 433.7l-29.3-6.4H161.2c-24 0-43.4 14.5-43.4 32.4V561.5c0 17.8 19.4 32.4 43.4 32.4h343.4c3.6-28.5 13.6-100.4 33.3-160.2zM518 603.4l0.1-2-2 0.2c0 0.6-0.1 1.1-0.1 1.5 0.6 0.1 1.4 0.2 2 0.3zM517.8 606.7l0.1-3.3c-0.6-0.1-1.3-0.2-2-0.2-0.2 1.6-0.4 2.8-0.4 3.5h2.3zM517.5 617l0.4-10.3h-2.2c-0.1 0.4-0.1 0.6-0.1 0.7l-6.7-0.7h-7.2l0.1 10.3c0.6-0.1 1.3-0.1 2.1-0.2l-1.7 43 0.2 28.2c-0.1 0.6-0.7 6.5-0.7 15.4v0.6c0 12.7 1.2 31.5 6.8 50.1 5.7-18.5 7-37.5 7-50.5v-0.1c0-9.3-0.6-15.5-0.7-16.4l1.1-27.5-0.4-42.9c0.6 0.2 1.4 0.2 2 0.3zM515.8 659.6l1.7-42.7c-0.6-0.1-1.3-0.1-2.1-0.2l0.4 42.9zM517.1 593.9h-12.5c-0.4 3.2-0.6 5.9-0.9 7.8l5.5 0.6h1l5.9-0.6c0.3-2.1 0.6-4.8 1-7.8zM516 603.2c0-0.4 0.1-0.9 0.1-1.5l-5.9 0.6h-0.5c2.2 0.3 4.2 0.5 6.3 0.9zM516 688.7l-0.2-29.1-1.1 27.5c0.1 0.9 0.7 7.1 0.7 16.4 0-8.8 0.6-14.6 0.6-14.8zM516 603.2c-2.1-0.4-4.2-0.6-6.2-0.9-2.1 0.2-4.2 0.5-6.1 0.9-0.2 1.5-0.4 2.4-0.4 2.9l5.5 0.6h6.8c0-0.7 0.2-1.9 0.4-3.5zM515.6 606.7h-6.8l6.7 0.7c0-0.1 0-0.3 0.1-0.7zM503.7 603.2c2-0.4 4-0.6 6.1-0.9h-0.5l-5.5-0.6c-0.1 0.5-0.1 1-0.1 1.5zM508.8 606.7l-5.5-0.6c0-0.5 0.1-1.5 0.4-2.9-0.7 0-1.3 0.1-2.1 0.2v3.3h7.2zM508.6 427.4v-12.8H175.9v12.8zM504.6 593.9H161.3c-24 0-43.4-14.5-43.4-32.4v-101.7c0-17.8 19.4-32.4 43.4-32.4H176v-1h-12.2v-11.9h-2.4c-33.5 0-60.8 20.3-60.8 45.2V561.5c0 24.9 27.3 45.2 60.8 45.2h318.3c7-1.3 14.3-2.4 22-3.3v-2l2.2 0.2c0.1-1.9 0.4-4.5 0.7-7.7zM502.1 659.8l1.7-43c-0.7 0.1-1.5 0.1-2.1 0.2l0.4 42.8zM503.8 601.7l-2.2-0.2v2c0.7-0.1 1.3-0.2 2.1-0.2 0-0.6 0-1.1 0.1-1.6zM502.3 688l-0.2-28.2-1.1 27.9c0 0.5 0.6 6.6 0.6 15.8 0-9 0.6-14.9 0.7-15.5zM501 687.6l1.1-27.9-0.4-42.8c-127.3 16.7-153.5 72.5-153.8 73.3-11.2 23.8-8.9 51.1 6.1 73 16.1 23.5 44.3 36.9 76.4 36.9 2.8 0 5.7-0.1 8.7-0.4 17.2-1.2 31.2-8.1 41.3-20.3 18.1-21.6 21.1-55.6 21.1-75.5v-0.6c0.1-9.1-0.5-15.2-0.5-15.7zM501.7 617l-0.1-10.3h-22c-118.3 20.8-143.1 75.5-144.1 78-13.2 28.1-10.5 60.4 7.3 86.3 20.3 29.6 56.7 45.5 97.3 42.5 21.1-1.6 38.3-10.1 50.9-25.3 8.3-10 13.8-21.9 17.5-34.1-5.6-18.6-6.8-37.4-6.8-50.1 0 19.9-3.1 53.9-21.1 75.5-10.1 12.2-24.1 19.1-41.3 20.3-2.9 0.2-5.9 0.4-8.7 0.4-32.1 0-60.3-13.4-76.4-36.9-15-21.9-17.4-49.1-6.1-73 0.1-0.8 26.4-56.6 153.6-73.3zM501.6 606.7v-3.3c-7.7 0.9-15 2-22 3.3h22zM163.7 426.4h12.2v-11.9h-12.2z"  horiz-adv-x="1024" />

    
    <glyph glyph-name="liwu4" unicode="&#59088;" d="M859.9 760.9V75H174V760.9h685.9z m-10.2-675.8V361.7h-212c0-0.2 0.1-0.4 0.1-0.5 9.1-19.2 7.3-41.3-4.9-59-11.6-16.9-31.1-27.1-53.4-28.8V86h-10.1V273.2c-0.9 0.1-1.8 0-2.8 0.1-14.4 1-26.1 6.8-34.7 17.2-5.7 6.8-9.4 15-11.9 23.3-2.4-8.3-6.2-16.5-11.9-23.3-8.6-10.4-20.2-16.2-34.6-17.2-3-0.2-6-0.3-8.9-0.2v-188h385.1z m0 286.7V750.7H579.5V555c22.3-1.6 41.7-11.8 53.4-28.8 10.5-15.4 13.3-34 7.9-51.3h207.4v-10.1H636.6c-4.8-8.7-25.8-38.3-95.5-50.6 54.7-9.6 79.3-29.9 89.7-42.3h218.9z m-220.4 99c7.8 16.6 6.2 35.1-4 50.1-10.9 15.9-30.2 25.1-52 25.1-1.9 0-3.9-0.1-5.9-0.2-11.8-0.9-21.3-5.6-28.2-13.9-18.1-21.8-14.1-61.6-14-62l-0.2-19.7 1.2-29.1c86.5 11.5 103 49.4 103.1 49.7z m-4.1-163.4c10.2 15 11.8 33.5 4 50.1-0.1 0.3-16.6 38.3-103.2 49.6l-1.2-29.1 0.2-19.7c-0.1-0.4-4.2-40.2 14-62 7-8.3 16.4-13 28.2-13.9 1.9-0.1 3.9-0.2 5.9-0.2 21.9 0.1 41.2 9.3 52.1 25.2z m-55.8 247.8V750.7h-105v-195.5c2.9 0.1 5.9 0 8.9-0.2 14.4-1 26-6.8 34.6-17.2 5.8-6.8 9.5-15 11.9-23.3 2.5 8.3 6.3 16.5 11.9 23.3 8.6 10.4 20.3 16.2 34.7 17.2 1.2 0.2 2.1 0.1 3 0.2z m-53.8-104.8l-0.7 18.9c0 1.1 4.2 40.9-14.1 62.7-6.9 8.3-16.4 13-28.1 13.9-2 0.1-3.9 0.2-5.9 0.2-22 0-41.1-9.2-52-25.1-10.3-15-11.8-33.5-4.3-49.8 0.3-0.5 18.2-38.6 104.9-49.8l0.2 29z m0-72.4l-0.2 29.1c-86.7-11.2-104.6-49.3-104.9-49.8-7.6-16.3-6.1-34.8 4.3-49.8 10.9-15.9 30.1-25.1 52-25.1 1.9 0 3.8 0.1 5.9 0.2 11.7 0.9 21.3 5.6 28.1 13.9 18.2 21.8 14.1 61.6 14.1 62.7l0.7 18.8z m-61.3-292.9V274c-19.7 2.9-36.7 12.8-47.3 28.1-12.1 17.7-14 39.8-5.1 58.9 0.1 0 0.2 0.3 0.3 0.6H184.1V85h270.2z m0 469.2V750.7H184.1v-275.9h215c-5.5 17.2-2.7 35.9 7.9 51.3 10.6 15.5 27.6 25.3 47.3 28.2z m-44.9-182.5c10.9 12.6 36.2 32.8 91 42.3-69.6 12.2-91.8 41.7-97 50.6H184.1v-92.9h225.3zM849.7 361.7v-276.6H569.4v0.9h10.1V273.4c22.3 1.6 41.7 11.8 53.4 28.8 12.1 17.7 14 39.8 4.9 59 0 0.1-0.1 0.3-0.1 0.5h212zM849.7 474.9v-103.1H630.9c-10.4 12.5-35 32.7-89.7 42.3 69.7 12.4 90.7 41.9 95.5 50.6h211.6v10.1h1.4zM849.7 750.7v-275.9H640.8c5.4 17.3 2.6 35.9-7.9 51.3-11.6 16.9-31.1 27.1-53.4 28.8V750.7h270.2zM625.2 520.9c10.2-15 11.8-33.5 4-50.1-0.1-0.3-16.6-38.3-103.2-49.6l-1.2 29.1 0.2 19.7c-0.1 0.4-4.2 40.2 14 62 7 8.3 16.4 13 28.2 13.9 1.9 0.1 3.9 0.2 5.9 0.2 21.9-0.1 41.2-9.3 52.1-25.2zM629.3 357.5c7.8-16.6 6.2-35.1-4-50.1-10.9-15.9-30.2-25.1-52-25.1-1.9 0-3.9 0.1-5.9 0.2-11.8 0.9-21.3 5.6-28.2 13.9-18.1 21.8-14.1 61.6-14 62l-0.2 19.7 1.2 29.1c86.5-11.4 103-49.3 103.1-49.7zM569.4 86v-0.9h-105v188c2.9-0.1 5.9 0 8.9 0.2 14.4 1 26 6.8 34.6 17.2 5.8 6.8 9.5 15 11.9 23.3 2.5-8.3 6.3-16.5 11.9-23.3 8.6-10.4 20.3-16.2 34.7-17.2 1-0.1 1.9 0 2.8-0.1V86zM569.4 750.7v-195.6c-0.9-0.1-1.8 0-2.8-0.1-14.4-1-26.1-6.8-34.7-17.2-5.7-6.8-9.4-15-11.9-23.3-2.4 8.3-6.2 16.5-11.9 23.3-8.6 10.4-20.2 16.2-34.6 17.2-3 0.2-6 0.3-8.9 0.2V750.7h104.8zM514.9 469.3l0.7-18.9-0.2-29.1c-86.7 11.2-104.6 49.3-104.9 49.8-7.6 16.3-6.1 34.8 4.3 49.8 10.9 15.9 30.1 25.1 52 25.1 1.9 0 3.8-0.1 5.9-0.2 11.7-0.9 21.3-5.6 28.1-13.9 18.2-21.7 14.1-61.5 14.1-62.6zM515.4 407.1l0.2-29.1-0.7-18.9c0-1.1 4.2-40.9-14.1-62.7-6.9-8.3-16.4-13-28.1-13.9-2-0.1-3.9-0.2-5.9-0.2-22 0-41.1 9.2-52 25.1-10.3 15-11.8 33.5-4.3 49.8 0.3 0.6 18.2 38.6 104.9 49.9zM454.3 274v-188.9H184.1V361.7h218.2c-0.1-0.3-0.2-0.6-0.3-0.6-8.9-19.1-7.1-41.2 5.1-58.9 10.5-15.4 27.5-25.2 47.2-28.2zM454.3 750.7v-196.4c-19.7-2.9-36.7-12.8-47.3-28.1-10.6-15.4-13.4-34.1-7.9-51.3h-215V750.7h270.2zM500.4 414.1c-54.8-9.5-80.1-29.8-91-42.3H184.1v92.9h219.3c5.2-8.9 27.3-38.3 97-50.6z"  horiz-adv-x="1024" />

    
    <glyph glyph-name="dangao-" unicode="&#58881;" d="M607.568954 748.212957s99.181527 24.959589 107.063503-40.723541c9.85247-86.044901-144.502886-84.074407-172.089801-101.808852-21.675433 46.635022-107.063502 135.307248-49.919179 183.912765 64.369468 55.830661 114.945478-41.380372 114.945477-41.380372zM436.792816 781.711353s45.978191 107.720334 118.229634 51.889673c76.849262-59.771648-49.262348-181.942271-57.801154-218.067992-53.860167 20.36177-195.078897 36.782553-185.883259 108.377165 13.136626 100.495189 125.454779 57.801155 125.454779 57.801154zM440.733804 569.554843c18.391276 15.763951 18.391276 42.037203 0 57.801154l-32.841565 28.900578-32.841565-28.900578c-18.391276-15.763951-18.391276-42.037203 0-57.801154 9.195638-7.881976 21.018602-11.822963 32.841565-11.822964 11.822963 0 23.645927 3.940988 32.841565 11.822964zM542.542656 569.554843c18.391276 15.763951 18.391276 42.037203 0 57.801154l-32.841566 28.900578-32.841565-28.900578c-18.391276-15.763951-18.391276-42.037203 0-57.801154 9.195638-7.881976 21.018602-11.822963 32.841565-11.822964 11.822963 0 23.645927 3.940988 32.841566 11.822964zM644.351507 569.554843c18.391276 15.763951 18.391276 42.037203 0 57.801154l-32.841565 28.900578-32.841565-28.900578c-18.391276-15.763951-18.391276-42.037203 0-57.801154 9.195638-7.881976 21.018602-11.822963 32.841565-11.822964 11.822963 0 23.645927 3.940988 32.841565 11.822964zM390.157793 569.554843c18.391276 15.763951 18.391276 42.037203 0 57.801154l-32.841565 28.900578-32.841565-28.900578c-18.391276-15.763951-18.391276-42.037203 0-57.801154 9.195638-7.881976 21.018602-11.822963 32.841565-11.822964 11.822963 0 23.645927 3.940988 32.841565 11.822964zM491.966645 569.554843c18.391276 15.763951 18.391276 42.037203 0 57.801154l-32.841565 28.900578-32.841565-28.900578c-18.391276-15.763951-18.391276-42.037203 0-57.801154 9.195638-7.881976 21.018602-11.822963 32.841565-11.822964 11.822963 0 23.645927 3.940988 32.841565 11.822964zM593.118666 569.554843c18.391276 15.763951 18.391276 42.037203 0 57.801154l-32.841565 28.900578-32.841565-28.900578c-18.391276-15.763951-18.391276-42.037203 0-57.801154 9.195638-7.881976 21.018602-11.822963 32.841565-11.822964 11.822963 0 24.302758 3.940988 32.841565 11.822964zM694.927518 569.554843c18.391276 15.763951 18.391276 42.037203 0 57.801154l-32.841565 28.900578-32.841566-28.900578c-18.391276-15.763951-18.391276-42.037203 0-57.801154 9.195638-7.881976 21.018602-11.822963 32.841566-11.822964 11.822963 0 23.645927 3.940988 32.841565 11.822964zM197.049391 140.644003h623.989737v-223.322643H197.049391zM249.595895 363.966645h518.896728v-229.890955H249.595895zM302.142399 587.289288h413.80372v-223.322643H302.142399zM731.053239 578.09365c-1.970494 5.911482-7.225144 10.509301-13.793457 10.509301H306.083387c-7.881976 0-14.450289-6.568313-14.450289-14.450289v-51.232842h1.313663V501.901219c0-9.85247 8.538807-18.391276 18.391276-18.391277h2.627325c9.85247 0 18.391276 8.538807 18.391277 18.391277v21.018601c1.313663-16.420783 14.450289-28.900577 30.21424-28.900577s29.557409 13.136626 30.21424 28.900577h0.656831c1.313663-16.420783 14.450289-28.900577 30.21424-28.900577 16.420783 0 29.557409 13.136626 30.21424 28.900577h0.656831c1.313663-16.420783 14.450289-28.900577 30.21424-28.900577s29.557409 13.136626 30.21424 28.900577h0.656831c1.313663-16.420783 14.450289-28.900577 30.21424-28.900577 16.420783 0 29.557409 13.136626 30.21424 28.900577h0.656831c1.313663-16.420783 14.450289-28.900577 30.21424-28.900577 16.420783 0 29.557409 13.136626 30.21424 28.900577h0.656831c1.313663-16.420783 14.450289-28.900577 30.21424-28.900577 10.509301 0 19.704939 5.25465 25.616421 13.793457v-5.911481c0-9.85247 8.538807-18.391276 18.391276-18.391277h2.627326c9.85247 0 18.391276 8.538807 18.391276 18.391277V570.211674l-1.970494 7.881976zM836.146248 131.448364c-1.970494 5.911482-7.225144 10.509301-13.793458 10.509301H200.990378c-7.881976 0-14.450289-6.568313-14.450288-14.450288v-51.232842h1.313662v-21.018602c0-9.85247 8.538807-18.391276 18.391277-18.391276h2.627325c9.85247 0 18.391276 8.538807 18.391277 18.391276v21.018602h0.656831c1.970494-14.450289 13.793457-25.616421 28.243746-25.616421 14.450289 0 26.930083 11.166132 28.243746 25.616421h0.656831c1.970494-14.450289 13.793457-25.616421 28.243746-25.616421 14.450289 0 26.930083 11.166132 28.243746 25.616421h0.656831c1.970494-14.450289 13.793457-25.616421 28.243746-25.616421 14.450289 0 26.930083 11.166132 28.243746 25.616421h1.970494c1.970494-14.450289 13.793457-25.616421 28.243746-25.616421 14.450289 0 26.930083 11.166132 28.243746 25.616421h0.656832c1.970494-14.450289 13.793457-25.616421 28.243746-25.616421 14.450289 0 26.930083 11.166132 28.243746 25.616421h0.656831c1.970494-14.450289 13.793457-25.616421 28.243746-25.616421 14.450289 0 26.930083 11.166132 28.243746 25.616421h0.656831c1.970494-14.450289 13.793457-25.616421 28.243746-25.616421 14.450289 0 26.930083 11.166132 28.243746 25.616421h0.656831c1.970494-14.450289 13.793457-25.616421 28.243746-25.616421 14.450289 0 26.930083 11.166132 28.243746 25.616421h0.656832c1.970494-14.450289 13.793457-25.616421 28.243746-25.616421 14.450289 0 26.930083 11.166132 28.243746 25.616421h0.656831c1.970494-14.450289 13.793457-25.616421 28.243746-25.616421 9.195638 0 17.734445 4.597819 22.989096 11.822964v-7.225145c0-9.85247 8.538807-18.391276 18.391276-18.391276h2.627325c9.85247 0 18.391276 8.538807 18.391277 18.391276v68.310456c3.284157 2.627325 2.627325 5.25465 1.970494 7.881975zM783.599743 354.771007c-1.970494 5.911482-7.225144 10.509301-13.793457 10.509301H253.536883c-7.881976 0-14.450289-6.568313-14.450289-14.450289v-51.232841h1.313663V278.578576c0-9.85247 8.538807-18.391276 18.391276-18.391276h2.627325c9.85247 0 18.391276 8.538807 18.391277 18.391276v21.018602h0.656831c1.313663-15.10712 13.793457-26.930083 28.900577-26.930084s27.586915 11.822963 28.900578 26.930084h0.656831c1.313663-15.10712 13.793457-26.930083 28.900577-26.930084s27.586915 11.822963 28.900577 26.930084h0.656832c1.313663-15.10712 13.793457-26.930083 28.900577-26.930084 15.10712 0 27.586915 11.822963 28.900577 26.930084h0.656832c1.313663-15.10712 13.793457-26.930083 28.900577-26.930084 15.10712 0 27.586915 11.822963 28.900577 26.930084h0.656832c1.313663-15.10712 13.793457-26.930083 28.900577-26.930084 15.10712 0 27.586915 11.822963 28.900577 26.930084h0.656831c1.313663-15.10712 13.793457-26.930083 28.900578-26.930084 15.10712 0 27.586915 11.822963 28.900577 26.930084h0.656831c1.313663-15.10712 13.793457-26.930083 28.900578-26.930084 15.10712 0 27.586915 11.822963 28.900577 26.930084h0.656831c1.313663-15.10712 13.793457-26.930083 28.900578-26.930084 9.85247 0 18.391276 5.25465 24.302758 12.479795v-6.568313c0-9.85247 8.538807-18.391276 18.391276-18.391276h2.627325c9.85247 0 18.391276 8.538807 18.391277 18.391276V346.889031c2.627325 2.627325 1.970494 5.25465 1.313662 7.881976zM352.721216 616.445652a8.538807 8.538807 0 1 1 7.585831 15.300329 8.538807 8.538807 0 1 1-7.585831-15.300329ZM352.721216 616.445652a8.538807 8.538807 0 1 1 7.585831 15.300329 8.538807 8.538807 0 1 1-7.585831-15.300329ZM330.436466 599.527906a8.538807 8.538807 0 1 1 7.585832 15.300329 8.538807 8.538807 0 1 1-7.585832-15.300329ZM357.827986 592.919872a8.538807 8.538807 0 1 1 7.585831 15.300329 8.538807 8.538807 0 1 1-7.585831-15.300329ZM381.768801 601.613891a8.538807 8.538807 0 1 1 7.585831 15.300328 8.538807 8.538807 0 1 1-7.585831-15.300328ZM455.290535 616.265459a8.538807 8.538807 0 1 1 7.585831 15.300329 8.538807 8.538807 0 1 1-7.585831-15.300329ZM427.140401 594.268351a8.538807 8.538807 0 1 1 7.585832 15.300329 8.538807 8.538807 0 1 1-7.585832-15.300329ZM451.629836 591.707937a8.538807 8.538807 0 1 1 7.585832 15.300329 8.538807 8.538807 0 1 1-7.585832-15.300329ZM478.078406 602.008169a8.538807 8.538807 0 1 1 7.585832 15.300328 8.538807 8.538807 0 1 1-7.585832-15.300328ZM558.067976 625.662651a8.538807 8.538807 0 1 1 7.585832 15.300328 8.538807 8.538807 0 1 1-7.585832-15.300328ZM533.390962 601.784548a8.538807 8.538807 0 1 1 7.585831 15.300329 8.538807 8.538807 0 1 1-7.585831-15.300329ZM556.974827 601.884589a8.538807 8.538807 0 1 1 7.585831 15.300329 8.538807 8.538807 0 1 1-7.585831-15.300329ZM584.86753 594.127118a8.538807 8.538807 0 1 1 7.585831 15.300328 8.538807 8.538807 0 1 1-7.585831-15.300328ZM657.34077 625.515532a8.538807 8.538807 0 1 1 7.585832 15.300329 8.538807 8.538807 0 1 1-7.585832-15.300329ZM635.199813 601.784548a8.538807 8.538807 0 1 1 7.585832 15.300329 8.538807 8.538807 0 1 1-7.585832-15.300329ZM663.083473 591.769018a8.538807 8.538807 0 1 1 7.585832 15.300329 8.538807 8.538807 0 1 1-7.585832-15.300329ZM689.790424 607.537959a8.538807 8.538807 0 1 1 7.585832 15.300329 8.538807 8.538807 0 1 1-7.585832-15.300329Z"  horiz-adv-x="1024" />

    
    <glyph glyph-name="gouwuche3" unicode="&#58892;" d="M343.9 196.8c-9.1 0-17.1 6.7-18.4 16-1.5 10.2 5.6 19.6 15.8 21.1l509.6 72.8 65.7 263h-666c-10.3 0-18.6 8.3-18.6 18.6s8.3 18.6 18.6 18.6h689.9c5.7 0 11.2-2.6 14.7-7.2 3.5-4.5 4.8-10.4 3.4-16L884 285.5c-1.8-7.4-7.9-12.9-15.4-13.9L346.5 197c-0.9-0.1-1.8-0.2-2.6-0.2zM213.4 700.2c-3.6 0-7.1 1-10.3 3.1l-55.9 37.3c-8.6 5.7-10.9 17.3-5.2 25.9 5.7 8.6 17.3 10.9 25.9 5.2l55.9-37.3c8.6-5.7 10.9-17.3 5.2-25.9-3.7-5.4-9.6-8.3-15.6-8.3zM511.7-64.2c-41.1 0-74.6 33.4-74.6 74.6 0 41.1 33.5 74.6 74.6 74.6 41.1 0 74.6-33.4 74.6-74.6 0-41.2-33.5-74.6-74.6-74.6z m0 111.8c-20.6 0-37.3-16.7-37.3-37.3 0-20.6 16.7-37.3 37.3-37.3 20.6 0 37.3 16.7 37.3 37.3 0 20.6-16.7 37.3-37.3 37.3zM791.4-64.2c-41.1 0-74.6 33.4-74.6 74.6 0 41.1 33.5 74.6 74.6 74.6s74.6-33.4 74.6-74.6c-0.1-41.2-33.5-74.6-74.6-74.6z m0 111.8c-20.6 0-37.3-16.7-37.3-37.3 0-20.6 16.7-37.3 37.3-37.3s37.3 16.7 37.3 37.3c-0.1 20.6-16.8 37.3-37.3 37.3zM791.4 47.6H437.1c-50 0-98.5 38.1-110.3 86.7L195.2 714.7c-2.3 10 4 20 14.1 22.3 10.1 2.3 20-4 22.3-14.1l131.5-580.1c7.6-31.3 41.5-57.9 74-57.9h354.3c10.3 0 18.6-8.3 18.6-18.6s-8.3-18.7-18.6-18.7zM120.1 718.9c-30.8 0-55.9 25.1-55.9 55.9s25.1 55.9 55.9 55.9S176 805.6 176 774.8s-25-55.9-55.9-55.9z m0 74.5c-10.3 0-18.6-8.4-18.6-18.6s8.4-18.6 18.6-18.6 18.6 8.4 18.6 18.6-8.3 18.6-18.6 18.6zM659 260.5L865.9 290l74.6 298.3H447.9c8.1-142.6 91.3-265 211.1-327.8zM659 241.8c-3 0-6 0.7-8.7 2.1-128.2 67.3-212.9 198.8-221.1 343.3-0.3 5.1 1.5 10.1 5.1 13.9 3.5 3.7 8.4 5.8 13.6 5.8h492.6c5.7 0 11.2-2.6 14.7-7.2 3.5-4.5 4.8-10.4 3.4-16L884 285.5c-1.8-7.4-7.9-12.9-15.4-13.9L661.7 242c-0.9-0.1-1.8-0.2-2.7-0.2zM468.2 569.7c13.4-121.7 86.4-231.1 194.3-289.9l188.4 26.9 65.7 263H468.2z"  horiz-adv-x="1024" />

    
    <glyph glyph-name="liwu5" unicode="&#58909;" d="M968.18733828 608.0648847H808.04134443l54.75184805 54.56217568a45.7740624 45.7740624 0 0 1 4.23599765 21.05354004 32.18093614 32.18093614 0 0 1-8.40877118 21.24321064l-84.34060664 84.15093516a28.19783408 28.19783408 0 0 1-42.10707921 0l-168.61798828-177.02675947-168.61798915 177.02675947a28.19783408 28.19783408 0 0 1-42.10707921 0L268.4890707 704.9238110599999a26.55401396 26.55401396 0 0 1-4.17277353-42.29675068l54.81507129-54.75184716H175.802917a28.83007266 28.83007266 0 0 1-29.52553448-29.46231124v-316.11921328A28.83007266 28.83007266 0 0 1 175.802917 233.27394456000002h8.40877118v-248.46970166a28.83007266 28.83007266 0 0 1 29.52553448-29.46231123h716.51580996a28.83007266 28.83007266 0 0 1 29.52553447 29.46231123v248.46970166h8.40877119a28.83007266 28.83007266 0 0 1 29.52553448 29.46231035v316.11921417a28.83007266 28.83007266 0 0 1-29.52553448 29.20941561zM314.45280371 632.53251146L264.31629717 682.6690188800001a23.20315049 23.20315049 0 0 0-8.40877119 21.05353916 23.13992636 23.13992636 0 0 0 12.64476797 21.05354003L352.82967646 808.99025648a28.19783408 28.19783408 0 0 0 42.17030333 0l168.23864531-176.45774503z m249.48128408-1e-8L732.1727331 808.99025648a28.19783408 28.19783408 0 0 0 42.17030333 0L858.62041894 724.77609807a32.18093614 32.18093614 0 0 0 8.40877119-21.05354003 45.7740624 45.7740624 0 0 0-4.23599765-21.05353916l-50.19973154-50.13650742zM941.57010019 292.64113323000004H62V647.07399515h204.08656464L176.56160293 736.5989568699999 295.2959794 855.33333333l208.25933818-208.25933818h5.81659365L717.63124942 855.33333333l118.73437646-118.73437646-89.52496084-89.52496172h194.72943515zM93.61192167 324.25305403000004h816.34625773V615.46207435H670.52948662l121.13688252 121.13688252L717.63124942 810.63407659 522.45924717 615.46207435h-31.99126465L295.2959794 810.63407659 221.32408378 736.5989568699999l121.07365841-121.13688252H93.61192167zM838.26234161-39.66338473999997H165.30775947a28.45072881 28.45072881 0 0 0-28.45072968 28.45072969V286.31874837a28.45072881 28.45072881 0 0 0 28.45072968 28.45072969h672.95458213a28.45072881 28.45072881 0 0 0 28.45072881-28.45072969v-297.53140342a28.45072881 28.45072881 0 0 0-28.45072881-28.45072969z m-669.79339015 31.61192169h666.63219727V283.28400374H168.46895146zM916.28056338 283.66334758999994H87.28953682a25.28953682 25.28953682 0 0 0-25.28953682 25.28953681V612.80667268a25.28953682 25.28953682 0 0 0 25.28953682 25.28953682h828.99102656a25.28953682 25.28953682 0 0 0 25.28953681-25.28953682v-303.85378828a25.28953682 25.28953682 0 0 0-25.28953681-25.28953682zM87.28953682 612.80667268v-303.85378828h828.99102656V612.80667268zM450.19439492 618.24392337h99.51432803v-326.48792431H450.19439492zM549.77194707 291.75599906H450.19439492V618.37037073h99.57755216z m-86.93278418 12.64476884h74.28801533V605.72560188H462.83916289z"  horiz-adv-x="1064" />

    
    <glyph glyph-name="jiantou" unicode="&#58913;" d="M693.333333 384c0-14.933333-4.266667-29.866667-14.933333-40.533333l-234.666667-277.333334c-23.466667-27.733333-64-29.866667-89.6-8.533333-27.733333 23.466667-29.866667 64-8.533333 89.6L546.133333 384l-200.533333 236.8c-23.466667 27.733333-19.2 68.266667 8.533333 89.6 27.733333 23.466667 68.266667 19.2 89.6-8.533333l234.666667-277.333334c10.666667-10.666667 14.933333-25.6 14.933333-40.533333z"  horiz-adv-x="1024" />

    
    <glyph glyph-name="nanren-bangong" unicode="&#58899;" d="M879.762 128.394v62c0 77.657-40.879 53.379-111.613 87.027-58.223 27.698-187.382 43.198-256.149 43.198-68.69 0-197.777-15.465-255.95-43.104-70.819-33.646-111.812-9.392-111.812-87.121v-62C225.141 12.209 359.689-63.83 512-63.83s286.859 76.039 367.762 192.224zM512 300.619c35.106 0 84.542-4.209 129.017-10.984 52.083-7.934 94.181-18.686 118.541-30.274 23.616-11.234 43.979-16.447 60.34-20.635 14.658-3.752 26.235-6.715 31.708-12.062 2.018-1.971 8.157-7.969 8.157-36.27v-55.643c-38.254-53.252-88.802-97.569-146.525-128.397a425.406 425.406 0 0 0-95.808-37.101c-34.262-8.681-69.734-13.083-105.43-13.083-35.696 0-71.168 4.402-105.429 13.084a425.425 425.425 0 0 0-95.808 37.101C253.04 37.183 202.492 81.5 164.238 134.752v55.643c0 28.337 6.165 34.351 8.19 36.327 5.501 5.367 17.115 8.338 31.818 12.1 16.378 4.19 36.761 9.405 60.386 20.629 24.337 11.563 66.406 22.291 118.456 30.209 44.444 6.76 93.84 10.959 128.912 10.959m0 20c-68.69 0-197.777-15.465-255.95-43.104-70.818-33.646-111.812-9.392-111.812-87.121v-62C225.142 12.209 359.689-63.83 512-63.83s286.859 76.04 367.762 192.225v62c0 77.657-40.879 53.379-111.613 87.027-58.223 27.697-187.382 43.197-256.149 43.197zM427.859 163.777c0 54.075 2.347 105.593 6.591 152.464-64.487-6.404-138.295-19.671-178.4-38.726-70.819-33.646-111.812-9.392-111.812-87.121v-62C212.614 30.2 319.31-39.315 442.66-58.49c-9.334 63.181-14.801 139.744-14.801 222.267zM412.525 293.694c-3.099-41.653-4.666-85.238-4.666-129.917 0-69.86 3.878-137.505 11.274-197.511-48.104 10.609-93.609 29.375-135.603 55.953a430.652 430.652 0 0 0-67.333 52.692 431.199 431.199 0 0 0-51.959 59.84v55.643c0 28.337 6.165 34.351 8.19 36.327 5.501 5.367 17.115 8.338 31.818 12.1 16.378 4.19 36.761 9.405 60.386 20.629 28.968 13.763 84.305 26.474 147.893 34.244m21.925 22.547c-64.488-6.404-138.295-19.672-178.4-38.726-70.819-33.646-111.812-9.392-111.812-87.121v-62C212.614 30.2 319.31-39.315 442.66-58.49c-9.334 63.181-14.801 139.744-14.801 222.267 0 54.074 2.347 105.593 6.591 152.464zM768.149 277.422c-40.154 19.102-114.045 32.401-178.599 38.816 4.244-46.87 6.591-98.388 6.591-152.461 0-82.523-5.467-159.085-14.801-222.267 123.351 19.175 230.046 88.69 298.422 186.884v62c0 77.657-40.879 53.379-111.613 87.028zM611.475 293.689c63.665-7.785 119.073-20.527 148.082-34.328 23.616-11.234 43.979-16.446 60.34-20.635 14.658-3.752 26.235-6.716 31.708-12.062 2.018-1.971 8.157-7.969 8.157-36.271v-55.643a431.199 431.199 0 0 0-51.959-59.84 430.56 430.56 0 0 0-67.333-52.692c-41.995-26.578-87.499-45.344-135.603-55.953 7.396 60.005 11.274 127.65 11.274 197.511 0 44.678-1.567 88.26-4.666 129.913m-21.925 22.549c4.244-46.87 6.591-98.388 6.591-152.461 0-82.523-5.467-159.086-14.801-222.267 123.351 19.175 230.046 88.69 298.422 186.884v62c0 77.657-40.879 53.379-111.613 87.028-40.154 19.101-114.045 32.4-178.599 38.816zM393.38 161.824c0 40.203 1.745 78.507 4.9 113.355-47.945-4.761-102.82-14.625-132.637-28.792-52.652-25.016-83.13-6.983-83.13-64.773v-46.096c50.837-73.006 130.163-124.689 221.872-138.945-6.94 46.974-11.005 103.897-11.005 165.251zM757.959 244.16c-29.271 13.924-83.135 23.619-130.192 28.296 3.094-34.167 4.804-71.721 4.804-111.139 0-60.156-3.985-115.967-10.789-162.024 89.918 13.978 167.695 64.651 217.539 136.232V180.72c0 56.609-29.8 38.911-81.362 63.44zM512.108 277.342c-38.3 0-69.348 18.155-69.348 40.549v57.395c0 22.395 31.048 40.549 69.348 40.549s69.349-18.155 69.349-40.549v-57.395c-0.001-22.395-31.049-40.549-69.349-40.549zM512.108 267.342c-44.494 0-79.349 22.204-79.349 50.549v57.396c0 28.345 34.854 50.549 79.349 50.549s79.348-22.204 79.348-50.549v-57.396c0-28.345-34.854-50.549-79.348-50.549z m0 138.494c-31.615 0-59.349-14.275-59.349-30.549v-57.396c0-16.274 27.733-30.549 59.349-30.549s59.348 14.275 59.348 30.549v57.396c0 16.273-27.733 30.549-59.348 30.549zM512.108 299.526c-26.03 0-47.132 12.339-47.132 27.559v39.008c0 15.22 21.102 27.559 47.132 27.559 26.03 0 47.132-12.339 47.132-27.559v-39.008c0-15.221-21.102-27.559-47.132-27.559zM744.641 553.628c0-137.792-104.157-208.227-232.641-208.227s-232.641 70.434-232.641 208.227C279.359 707.275 306.196 831.83 512 831.83c201.375 0 232.641-124.555 232.641-278.202zM512 811.83c45.439 0 83.488-6.762 113.091-20.098 26.461-11.921 46.747-29.044 62.017-52.347 14.016-21.391 23.773-47.906 29.827-81.061 5.258-28.793 7.706-62.061 7.706-104.696 0-30.523-5.551-58.251-16.499-82.412-10.215-22.544-25.15-42.046-44.389-57.964-18.728-15.495-41.338-27.478-67.2-35.614-25.809-8.12-54.257-12.237-84.552-12.237s-58.743 4.117-84.552 12.237c-25.863 8.136-48.472 20.119-67.2 35.614-19.24 15.918-34.174 35.42-44.389 57.964-10.948 24.161-16.499 51.889-16.499 82.412 0 64.321 4.272 136.706 35.957 185.887 14.981 23.254 35.157 40.328 61.68 52.197C426.825 805.062 465.518 811.83 512 811.83m0 20c-205.804 0-232.641-124.555-232.641-278.202 0-137.792 104.157-208.227 232.641-208.227s232.641 70.434 232.641 208.227C744.641 707.275 713.375 831.83 512 831.83zM706.315 559.392C706.315 444.3 619.317 385.47 512 385.47S317.685 444.3 317.685 559.392c0 128.334 22.416 232.37 194.315 232.37 168.2 0 194.315-104.035 194.315-232.37zM442.651 573.843c0-9.356-7.584-16.94-16.94-16.94-46.498 0-52.408-6.098-52.408 0 0 9.356 39.462 33.88 52.408 33.88 9.356 0 16.94-7.585 16.94-16.94zM581.349 573.843c0-9.356 7.584-16.94 16.94-16.94 46.498 0 52.409-6.098 52.409 0 0 9.356-39.462 33.88-52.409 33.88-9.356 0-16.94-7.585-16.94-16.94zM366.468 494.064a43.334 21.667 0 1 1 86.668 0 43.334 21.667 0 1 1-86.668 0ZM409.802 465.396c-28.695 0-50.334 12.324-50.334 28.667 0 16.343 21.639 28.667 50.334 28.667s50.334-12.324 50.334-28.667c0-16.342-21.639-28.667-50.334-28.667z m0 43.335c-22.18 0-36.334-8.687-36.334-14.667s14.154-14.667 36.334-14.667 36.334 8.687 36.334 14.667-14.155 14.667-36.334 14.667zM412.385 499.48m-8 0a8 8 0 1 1 16 0 8 8 0 1 1-16 0ZM570.864 494.064a43.334 21.667 0 1 1 86.668 0 43.334 21.667 0 1 1-86.668 0ZM614.198 465.396c-28.695 0-50.334 12.324-50.334 28.667 0 16.343 21.639 28.667 50.334 28.667s50.335-12.324 50.335-28.667c0-16.342-21.64-28.667-50.335-28.667z m0 43.335c-22.18 0-36.334-8.687-36.334-14.667s14.154-14.667 36.334-14.667c22.181 0 36.335 8.687 36.335 14.667s-14.154 14.667-36.335 14.667zM613.782 499.48m-8 0a8 8 0 1 1 16 0 8 8 0 1 1-16 0ZM727.16 700.283c-18.194-18.646-72.873-13.002-76.485-49.015-2.86-28.514 57.22-94.335 68.316-96.678 12.056-2.546 15.292 15.361 25.357 23.017-1.094 44.751-5.594 86.49-17.188 122.676zM296.546 700.283c18.194-18.646 72.873-13.002 76.485-49.015 2.86-28.514-57.22-94.335-68.316-96.678-12.056-2.546-15.292 15.361-25.357 23.017 1.095 44.751 5.595 86.49 17.188 122.676zM304.057 624.775a6.97 6.97 0 0 0-4.669 1.787 7 7 0 0 0-0.543 9.884C350.898 694.544 428.59 727.865 512 727.865c64.221 0 126.579-20.261 175.588-57.052a7 7 0 0 0-8.404-11.197C632.583 694.599 573.21 713.865 512 713.865c-79.436 0-153.327-31.623-202.727-86.761a6.985 6.985 0 0 0-5.216-2.329zM304.057 658.754a6.97 6.97 0 0 0-4.669 1.787 7 7 0 0 0-0.543 9.884C350.898 728.523 428.59 761.844 512 761.844c53.779 0 105.794-13.923 150.421-40.264a7 7 0 1 0-7.115-12.056c-42.474 25.069-92.028 38.32-143.306 38.32-79.436 0-153.327-31.623-202.727-86.761a6.985 6.985 0 0 0-5.216-2.329zM310 695.932a6.999 6.999 0 0 0-5.043 11.853C356.836 761.701 432.3 792.623 512 792.623c41.295 0 80.963-8.012 117.904-23.813a7 7 0 0 0-5.505-12.872c-35.191 15.053-73.007 22.686-112.398 22.686-75.914 0-147.701-29.357-196.955-80.545a6.98 6.98 0 0 0-5.046-2.147zM534.22 258.13c-6.963-1.454-14.412-2.254-22.166-2.254-7.788 0-15.267 0.807-22.255 2.273l-29.678-29.678 25.818-25.818c-24.729-57.649-25.818-191.836-25.818-191.836l51.88-51.88 51.88 51.88s-1.089 134.187-25.818 191.836l25.818 25.818-29.661 29.659zM512-50.962l-58.902 58.903 0.023 2.933c0.044 5.4 1.324 129.914 24.584 190.114l-27.483 27.483 37.307 37.306 3.707-0.777c13.407-2.813 28.14-2.819 41.555-0.018l3.704 0.773 37.285-37.285-27.484-27.483c23.26-60.2 24.541-184.713 24.585-190.114l0.023-2.933L512-50.962z m-44.837 64.636L512-31.163l44.838 44.837c-0.349 19.819-3.305 135.154-25.21 186.219l-1.868 4.357 24.221 24.22-22.09 22.089c-12.963-2.242-26.809-2.237-39.765 0.016l-22.105-22.105 24.22-24.22-1.868-4.357c-21.915-51.086-24.863-166.403-25.21-186.219zM511.621 270.469l-52.431-52.431-36.401 36.401M459.189 208.139l-41.35 41.35 9.9 9.9 31.45-31.452 47.482 47.481 9.899-9.899zM512.38 270.469l52.43-52.431 36.4 36.4M564.81 208.139l-57.38 57.38 9.9 9.899 47.48-47.481 31.45 31.451 9.9-9.9zM703.333 23.241s55.087 68.306 64.916 168.603l-0.1-130.367c0 0.001-30.149-23.499-64.816-38.236zM317.938 23.241s-55.087 68.306-64.916 168.603l0.1-130.367c0 0.001 30.149-23.499 64.816-38.236z"  horiz-adv-x="1024" />

    
    <glyph glyph-name="gouwuche1" unicode="&#58943;" d="M819.2 656H256l-8 48c-8 46.4-48 80-94.4 80H96c-17.6 0-32-14.4-32-32s14.4-32 32-32h57.6c16 0 28.8-11.2 32-27.2l75.2-432v-3.2c6.4-28.8 32-49.6 62.4-49.6h440c30.4 0 57.6 22.4 62.4 52.8l57.6 320c0 3.2 1.6 8 1.6 11.2-1.6 35.2-30.4 64-65.6 64z m-56-384H323.2l-54.4 320h552l-57.6-320zM304 176c-52.8 0-96-43.2-96-96s43.2-96 96-96 96 43.2 96 96-43.2 96-96 96z m0-128c-17.6 0-32 14.4-32 32s14.4 32 32 32 32-14.4 32-32-14.4-32-32-32zM768 176c-52.8 0-96-43.2-96-96s43.2-96 96-96 96 43.2 96 96-43.2 96-96 96z m0-128c-17.6 0-32 14.4-32 32s14.4 32 32 32 32-14.4 32-32-14.4-32-32-32z"  horiz-adv-x="1024" />

    
    <glyph glyph-name="fangdajing1" unicode="&#58935;" d="M921.3 22L738.1 205.2c51.3 62.6 82.1 142.5 82.1 229.6 0 200.1-162.8 363-363 363-200.1 0-363-162.8-363-363s162.8-363 363-363c87 0 167 30.8 229.6 82.1L870-29.3c7.1-7.1 16.4-10.6 25.7-10.6s18.6 3.5 25.7 10.6c14.1 14.2 14.1 37.2-0.1 51.3zM166.8 434.8c0 160.1 130.3 290.4 290.4 290.4s290.4-130.3 290.4-290.4-130.3-290.4-290.4-290.4-290.4 130.3-290.4 290.4z"  horiz-adv-x="1024" />

    
    <glyph glyph-name="shouhoukefu" unicode="&#58901;" d="M824.2 535.3C809 590.2 744.7 768 512.1 768c-230.8 0-297-177.8-310.2-232.7-43.5-17-104-62.4-104-151.3 0-87 60.5-136.2 102.2-155.1 5.7-34.1 22.7-109.7 96.5-155.1 53-34.1 117.3-41.6 160.8-43.5 9.5-18.9 28.4-30.3 49.2-30.3 32.2 0 56.8 24.6 56.8 56.8 0 30.3-24.6 56.8-56.8 56.8-22.7 0-41.6-13.2-51.1-34.1-37.8 1.9-90.8 9.5-134.3 35.9-70 43.5-73.8 128.6-73.8 132.4V512.6c3.8 22.7 45.4 204.3 264.8 204.3S773.3 533.4 777 512.6v-266.7c0-7.6 3.8-15.1 9.5-20.8 3.8-3.8 9.5-5.7 15.1-5.7 1.9 0 5.7 0 7.6 1.9 41.6 13.2 119.2 62.4 119.2 160.8-0.2 90.8-62.6 136.2-104.2 153.2zM198 287.5c-22.7 17-51.1 45.4-51.1 96.5s28.4 79.5 51.1 92.7v-189.2z m630 0V476.7c22.7-15.1 51.1-43.5 51.1-92.7s-28.4-79.5-51.1-96.5z"  horiz-adv-x="1024" />

    
    <glyph glyph-name="icon-test" unicode="&#59118;" d="M946.338644 653.104913h-126.178486c-18.025498-36.050996-45.063745-69.097742-81.114741-90.12749H931.317396v-120.169987H90.12749v120.169987h192.271978c-36.050996 21.029748-63.089243 54.076494-81.114741 90.12749H75.106242C33.046746 653.104913 0 620.058166 0 577.9986710000001v-150.212483C0 385.726692 33.046746 352.679946 75.106242 352.679946h871.232402c42.059495 0 75.106242 33.046746 75.106242 75.106242v150.212483C1021.444886 620.058166 988.398139 653.104913 946.338644 653.104913zM709.002921 653.104913H201.284727c18.025498-36.050996 45.063745-69.097742 81.114741-90.12749h456.645949c36.050996 21.029748 63.089243 54.076494 81.114741 90.12749h-111.157237zM841.189906 352.679946v-390.552456H180.25498V352.679946h660.934926m90.12749 90.12749H90.12749v-480.679946c0-51.072244 39.055246-90.12749 90.12749-90.12749h660.934926c51.072244 0 90.12749 39.055246 90.12749 90.12749V442.807436zM799.130411 851.38539C766.083664 884.432137 718.01567 899.453385 663.939176 893.444886c-63.089243-9.012749-120.169987-48.067995-153.216733-102.144489C477.675697 845.376891 423.599203 884.432137 357.50571 893.444886c-54.076494 9.012749-102.144489-6.008499-135.191235-42.059496S174.24648 767.2664 180.25498 716.194156c3.00425-24.033997 12.016999-45.063745 21.029747-63.089243h111.157238C291.412217 671.130411 276.390969 698.168658 270.38247 728.211154c-3.00425 21.029748 0 45.063745 15.021248 60.084993s36.050996 18.025498 60.084993 15.021249c51.072244-6.008499 93.13174-48.067995 105.148739-99.140239l12.016998-51.072244h3.00425v-781.104913h90.12749V653.104913h3.004249l12.016999 51.072244c12.016999 51.072244 54.076494 90.12749 105.148738 99.140239 21.029748 3.00425 45.063745 0 60.084994-15.021249s18.025498-36.050996 15.021248-60.084993c-3.00425-30.042497-21.029748-54.076494-42.059495-75.106241h111.157237c9.012749 18.025498 15.021248 39.055246 18.025498 63.089243 9.012749 51.072244-6.008499 99.140239-39.055245 135.191234z"  horiz-adv-x="1024" />

    
    <glyph glyph-name="gouwuche4" unicode="&#58973;" d="M949.527273 693.527273c-4.654545 4.654545-11.636364 6.981818-18.618182 6.981818H225.745455l-20.945455 116.363636c0 2.327273 0 2.327273-2.327273 2.327273 0 2.327273 0 2.327273-2.327272 4.654545L197.818182 826.181818c2.327273 2.327273 0 4.654545-2.327273 6.981818-4.654545 2.327273-6.981818 4.654545-13.963636 4.654546H93.090909c-13.963636 0-23.272727-9.309091-23.272727-23.272727s9.309091-23.272727 23.272727-23.272728h69.818182l102.4-567.854545c2.327273-11.636364 11.636364-18.618182 23.272727-18.618182h532.945455c13.963636 0 23.272727 9.309091 23.272727 23.272727s-9.309091 23.272727-23.272727 23.272728h-512l-72.145455 402.618181H907.636364l-32.581819-244.363636c-4.654545-37.236364-34.909091-62.836364-72.145454-62.836364H388.654545c-13.963636 0-23.272727-9.309091-23.272727-23.272727s9.309091-23.272727 23.272727-23.272727h411.927273c60.509091 0 111.709091 44.218182 118.690909 104.727273L954.181818 674.909091c0 6.981818-2.327273 13.963636-4.654545 18.618182zM346.763636 169.89090899999997c-60.509091 0-109.381818-48.872727-109.381818-109.381818s48.872727-109.381818 109.381818-109.381818 109.381818 48.872727 109.381819 109.381818c-2.327273 60.509091-48.872727 109.381818-109.381819 109.381818z m0-169.890909c-34.909091 0-62.836364 27.927273-62.836363 62.836364 0 34.909091 27.927273 62.836364 62.836363 62.836363s62.836364-27.927273 62.836364-62.836363c-2.327273-34.909091-27.927273-62.836364-62.836364-62.836364zM774.981818 169.89090899999997c-60.509091 0-109.381818-48.872727-109.381818-109.381818s48.872727-109.381818 109.381818-109.381818 109.381818 48.872727 109.381818 109.381818-48.872727 109.381818-109.381818 109.381818z m0-169.890909c-34.909091 0-62.836364 27.927273-62.836363 62.836364 0 34.909091 27.927273 62.836364 62.836363 62.836363s62.836364-27.927273 62.836364-62.836363c0-34.909091-27.927273-62.836364-62.836364-62.836364zM574.836364 577.163636c0 13.963636-9.309091 23.272727-23.272728 23.272728h-211.781818c-13.963636 0-23.272727-9.309091-23.272727-23.272728s9.309091-23.272727 23.272727-23.272727h211.781818c13.963636 0 23.272727 9.309091 23.272728 23.272727z"  horiz-adv-x="1093" />

    
    <glyph glyph-name="shouhou" unicode="&#58923;" d="M937.837714 594.895238C918.332952 665.648762 835.291429 895.024762 535.161905 895.024762c-297.74019 0-383.171048-229.424762-400.237715-300.178286C78.799238 572.952381 0.682667 514.340571 0.682667 399.60381c0-112.249905 78.116571-175.737905 131.803428-200.118858 7.314286-43.934476 29.257143-141.55581 124.440381-200.118857 68.36419-43.934476 151.30819-53.686857 207.433143-56.124952 12.190476-24.380952 36.62019-39.058286 63.488-39.058286 41.447619 0 73.191619 31.695238 73.191619 73.191619 0 39.058286-31.695238 73.240381-73.191619 73.240381-29.305905 0-53.686857-17.066667-65.926095-43.934476-48.761905 2.438095-117.126095 12.190476-173.251048 46.372571-90.307048 56.124952-95.183238 165.936762-95.183238 170.812953V565.589333c4.87619 29.257143 58.563048 263.606857 341.674667 263.606857 283.062857 0 336.798476-236.739048 341.674666-263.606857v-344.112762c0-9.752381 4.87619-19.504762 12.190477-26.819047 4.87619-4.87619 12.190476-7.314286 19.504762-7.314286 2.438095 0 7.314286 0 9.75238 2.438095 53.735619 17.066667 153.795048 80.505905 153.795048 207.433143 0 117.126095-80.554667 175.689143-134.241524 197.680762z"  horiz-adv-x="1072" />

    
    <glyph glyph-name="icon-test1" unicode="&#58971;" d="M773.297493 111.77984000000004h-332.253866c-61.66528 0-112.121173 50.455893-112.121174 112.121173v38.2976c0 61.66528 50.455893 112.121173 112.121174 112.121174h332.253866c61.66528 0 112.121173-50.455893 112.121174-112.121174v-38.2976c-0.006827-61.66528-50.455893-112.121173-112.121174-112.121173zM396.834133 236.148053v15.6672c0 67.8912 55.54176 123.43296 123.43296 123.43296h-59.098453c-67.884373 0-123.43296-55.54176-123.43296-123.43296v-15.6672c0-67.8912 55.54176-123.43296 123.43296-123.43296h59.098453c-67.8912 0-123.43296 55.54176-123.43296 123.43296zM282.760533 572.532053l37.6832 37.6832 217.00608-217.019733-37.6832-37.676373zM321.378987 533.9136l37.6832 37.6832 141.571413-141.57824-37.6832-37.6832zM362.407253 494.523733l37.6832 37.676374 61.965654-61.965654-37.6832-37.6832zM401.14176 662.016l51.15904 14.916267 85.899947-294.62528-51.15904-14.916267zM416.433493 609.5871999999999l51.15904 14.916267 56.046934-192.211627-51.15904-14.916267zM433.4592 555.3152l51.15904 14.916267 24.528213-84.125014-51.15904-14.916266zM866.461013 382.23871999999994l-528.267946-5.352107c-33.068373-0.334507-59.849387-27.661653-59.51488-60.730026l0.095573-9.46176c0.28672-28.521813 20.677973-52.3264 47.49312-58.12224 4.77184 33.928533 33.655467 60.218027 68.95616 60.573013 35.826347 0.361813 65.549653-26.118827 70.3488-60.689067l1.06496 0.013654c3.918507 35.075413 33.368747 62.54592 69.556907 62.91456 36.18816 0.36864 66.205013-26.494293 70.833493-61.494614l1.058133 0.013654c4.041387 34.788693 33.32096 61.986133 69.256534 62.347946 35.9424 0.361813 65.815893-26.228053 70.567253-60.928l1.549653 0.013654c4.041387 34.79552 33.375573 61.986133 69.317974 62.347946 34.597547 0.34816 63.56992-24.2688 69.932373-57.05728 22.698667 8.799573 38.823253 30.958933 38.56384 56.640854l-0.095573 9.46176c-0.320853 33.068373-27.654827 59.84256-60.716374 59.508053zM371.991893 369.09056l-36.242773-0.006827c-21.763413 0-50.059947-22.637227-50.251093-49.588906l0.08192-7.939414c0.24576-23.94112 14.035627-44.332373 34.932053-53.036373 1.501867 10.676907 10.786133 24.69888 17.196373 32.768a49.759573 49.759573 0 0 0-4.532906 20.2752l-0.08192 7.939413c-0.279893 27.7504 11.14112 49.309013 38.898346 49.588907M715.18208 503.21408h-27.948373c1.14688 5.700267 1.76128 11.59168 1.76128 17.626453 0 48.954027-39.683413 88.644267-88.644267 88.644267-48.954027 0-88.644267-39.683413-88.644267-88.644267 0-6.191787 0.641707-12.22656 1.850027-18.056533-29.853013-3.447467-53.234347-28.95872-53.234347-59.692373v-3.29728c0-33.068373 27.05408-60.122453 60.122454-60.122454h194.730666c33.068373 0 60.122453 27.05408 60.122454 60.122454v3.29728c0.006827 33.068373-27.047253 60.122453-60.115627 60.122453zM366.40768 169.71093299999995m-48.837973 0a48.837973 48.837973 0 1 1 97.675946 0 48.837973 48.837973 0 1 1-97.675946 0ZM750.769493 536.180053m-41.956693 0a41.956693 41.956693 0 1 1 83.913387 0 41.956693 41.956693 0 1 1-83.913387 0ZM569.910613 464.602453m-21.89312 0a21.89312 21.89312 0 1 1 43.78624 0 21.89312 21.89312 0 1 1-43.78624 0ZM628.155733 522.847573m-21.89312 0a21.89312 21.89312 0 1 1 43.78624 0 21.89312 21.89312 0 1 1-43.78624 0ZM677.690027 435.131733m-21.89312 0a21.89312 21.89312 0 1 1 43.78624 0 21.89312 21.89312 0 1 1-43.78624 0ZM846.308693 44.277759999999944H378.22464c-28.726613 0-65.78176 20.56192-74.779307 38.966613l-15.03232 36.625067c0 1.29024 1.41312 2.341547 3.140267 2.341547h641.426773c1.727147 0 3.140267-1.058133 3.140267-2.341547l-15.03232-36.625067c-9.475413-19.633493-46.045867-38.966613-74.779307-38.966613zM369.547947 82.99178700000004l-13.0048 29.893973c0 1.051307 1.221973 1.911467 2.717013 1.911467h-60.381867c-1.49504 0-2.717013-0.86016-2.717013-1.911467l13.0048-29.893973c7.789227-15.025493 39.85408-31.80544 64.709973-31.80544h60.381867c-24.855893 0-56.920747 16.779947-64.709973 31.80544z"  horiz-adv-x="1024" />

    
    <glyph glyph-name="jiantou2" unicode="&#58895;" d="M989.866667 413.866667L597.333333 785.066667c-17.066667 17.066667-42.666667 17.066667-59.733333 0-17.066667-17.066667-17.066667-42.666667 0-59.733334l315.733333-298.666666H64c-25.6 0-42.666667-17.066667-42.666667-42.666667s17.066667-42.666667 42.666667-42.666667H853.333333l-315.733333-298.666666c-17.066667-17.066667-17.066667-42.666667 0-59.733334 8.533333-8.533333 21.333333-12.8 29.866667-12.8 8.533333 0 21.333333 4.266667 29.866666 12.8l392.533334 371.2c8.533333 8.533333 12.8 21.333333 12.8 29.866667s-4.266667 21.333333-12.8 29.866667z"  horiz-adv-x="1024" />

    
    <glyph glyph-name="banshou1" unicode="&#58942;" d="M891.3 145.6L623.6 413.4c41 96.9 22.1 213.2-56.9 292.2s-195.3 97.9-292.1 56.9L402 635c26-26 26-68.1 0-94.1l-47.1-47.1c-26-26-68.1-26-94.1 0L133.4 621.3c-41-96.9-22.1-213.2 56.9-292.2s195.3-97.9 292.2-56.9l267.8-267.8c26-26 68.1-26 94.1 0l47.1 47.1c25.8 26 25.8 68.1-0.2 94.1z m0 0"  horiz-adv-x="1024" />

    
    <glyph glyph-name="gouwuche5" unicode="&#59122;" d="M520.194688 154.62147c-98.820111 0-177.096973 0.404793-186.812007 1.657122-32.573193 4.187078-47.499938 32.623792-51.181026 48.764916l-0.101198 0.468042L150.024064 847.930821l0.366844 2.871501A12.131143 12.131143 0 0 1 148.885584 851.725757H45.663348a22.137122 22.137122 0 0 0 0 44.274243h110.230216l2.808252-0.746337a57.252922 57.252922 0 0 0 18.177739-8.981347c11.941396-8.930747 18.304237-21.871476 17.861495-36.001284l130.621668-635.310093c0.505991-1.808919 4.161779-13.547918 13.687066-14.774948 21.782928-2.289611 388.348363-1.15113 629.427943 0.177097h0.126498a22.137122 22.137122 0 0 0 0.113848-44.274243c-39.606473-0.215046-275.461692-1.467375-448.523385-1.467375zM150.492106 851.725757zM286.426683 295.135269a22.137122 22.137122 0 0 0-3.301593 44.021247l585.68499 89.193626 80.439976 293.474985H198.725732a22.137122 22.137122 0 1 0 0 44.274243h779.606177a22.137122 22.137122 0 0 0 21.352835-27.993972L907.746115 402.772279a22.137122 22.137122 0 0 0-18.013292-16.027276l-599.941297-91.369388a22.352168 22.352168 0 0 0-3.364843-0.240346zM442.942458-128a118.047783 118.047783 0 1 0 118.047783 118.047783 118.17428 118.17428 0 0 0-118.047783-118.047783z m0 191.808672a73.773539 73.773539 0 1 1 73.77354-73.773539 73.849438 73.849438 0 0 1-73.77354 73.773539zM842.47323-128a118.047783 118.047783 0 1 0 118.047783 118.047783 118.17428 118.17428 0 0 0-118.047783-118.047783z m0 191.808672a73.773539 73.773539 0 1 1 73.77354-73.773539 73.849438 73.849438 0 0 1-73.77354 73.773539z"  horiz-adv-x="1024" />

    
    <glyph glyph-name="kefu1" unicode="&#58910;" d="M984.710063 449.618602a510.293728 510.293728 0 0 1-135.930941 297.721587C758.471134 843.543654 638.886743 896 512 896S265.528866 843.543654 175.220878 747.340189A510.293728 510.293728 0 0 1 39.289937 449.618602 87.092273 87.092273 0 0 1 36.342199 427.443569v-95.198554a87.527735 87.527735 0 0 1 175.055469 0V427.443569A87.494238 87.494238 0 0 1 89.937444 508.104413C137.7712 707.746701 308.874021 855.87056 512 855.87056s374.2288-148.123859 422.062556-347.766147a87.494238 87.494238 0 0 1-121.460224-80.392868v-95.198554A87.092273 87.092273 0 0 1 927.36315 249.172384c-46.024917-161.924635-168.28907-278.829263-324.988168-303.952034a49.173637 49.173637 0 1 1 3.550685-40.196434c192.004966 29.209409 337.650045 182.558804 373.156895 389.972403a87.092273 87.092273 0 0 1 8.374257 37.114707V427.443569a87.092273 87.092273 0 0 1-2.746756 22.175033z m-860.873626 25.122771a47.364798 47.364798 0 0 0 47.297804-47.297804v-95.198554a47.331301 47.331301 0 0 0-94.662602 0v62.43846q0 23.849884 2.277798 46.89584a47.364798 47.364798 0 0 0 45.087 33.162058z m776.260132-189.794162a47.364798 47.364798 0 0 0-47.297804 47.297804V427.443569a47.297804 47.297804 0 0 0 92.384804 14.135746q2.210804-23.246938 2.277798-46.89584a547.341442 547.341442 0 0 0-6.699405-87.092273 47.297804 47.297804 0 0 0-40.598399-22.643991z"  horiz-adv-x="1024" />

    
    </font>
</defs>
</svg>
